<svg width="357" height="238" viewBox="0 0 357 238" fill="none" xmlns="http://www.w3.org/2000/svg">
<path d="M29.0156 224.192C28.7276 224.192 28.4716 224.128 28.2476 224C28.0236 223.904 27.9116 223.76 27.9116 223.568C27.9116 223.088 28.3116 222.768 29.1116 222.608C30.3276 222.352 31.1916 222 31.7036 221.552C32.2156 221.104 32.4716 220.352 32.4716 219.296V198.176C32.4716 196.96 32.2636 196.064 31.8476 195.488C31.4636 194.912 30.6956 194.496 29.5436 194.24C29.0956 194.144 28.7756 194.016 28.5836 193.856C28.3916 193.664 28.2956 193.472 28.2956 193.28C28.2956 193.056 28.3916 192.896 28.5836 192.8C28.8076 192.672 29.0956 192.608 29.4476 192.608C30.2156 192.608 30.9196 192.624 31.5596 192.656C32.2316 192.656 32.8716 192.672 33.4796 192.704C34.0876 192.736 34.7116 192.752 35.3516 192.752C36.0556 192.752 36.7116 192.72 37.3196 192.656C37.9596 192.592 38.5996 192.528 39.2396 192.464C39.9116 192.4 40.6796 192.368 41.5436 192.368C45.3516 192.368 48.3916 193.168 50.6636 194.768C52.9356 196.368 54.0716 198.576 54.0716 201.392C54.0716 203.376 53.6556 205.216 52.8236 206.912C52.0236 208.576 50.7756 209.92 49.0796 210.944C47.4156 211.968 45.3036 212.48 42.7436 212.48C41.9436 212.48 41.3356 212.368 40.9196 212.144C40.5036 211.888 40.2956 211.616 40.2956 211.328C40.2956 211.136 40.3916 210.976 40.5836 210.848C40.8076 210.688 40.9996 210.608 41.1596 210.608C41.4476 210.608 41.7196 210.64 41.9756 210.704C42.2636 210.736 42.6796 210.752 43.2236 210.752C44.7276 210.752 45.8636 209.984 46.6316 208.448C47.4316 206.912 47.8316 204.864 47.8316 202.304C47.8316 199.488 47.2556 197.44 46.1036 196.16C44.9836 194.848 43.4636 194.192 41.5436 194.192C40.6476 194.192 39.9436 194.384 39.4316 194.768C38.9516 195.12 38.7116 195.696 38.7116 196.496L38.6636 219.008C38.6636 220.064 38.9196 220.864 39.4316 221.408C39.9756 221.92 40.8876 222.32 42.1676 222.608C42.5836 222.672 42.8876 222.784 43.0796 222.944C43.2716 223.072 43.3676 223.264 43.3676 223.52C43.3676 223.744 43.2716 223.904 43.0796 224C42.9196 224.096 42.6636 224.144 42.3116 224.144C41.5756 224.144 40.8236 224.112 40.0556 224.048C39.2876 224.016 38.5356 223.984 37.7996 223.952C37.0956 223.92 36.4236 223.904 35.7836 223.904C35.0796 223.904 34.3436 223.92 33.5756 223.952C32.8396 223.984 32.0876 224.032 31.3196 224.096C30.5516 224.16 29.7836 224.192 29.0156 224.192Z" fill="#E92300"/>
<path d="M95.6812 225.008C94.3052 225.008 93.1052 224.848 92.0812 224.528C91.0572 224.24 90.1772 223.808 89.4412 223.232C88.7052 222.656 88.0332 221.984 87.4252 221.216C86.7212 220.256 86.0332 219.328 85.3612 218.432C84.6892 217.504 84.0012 216.496 83.2972 215.408C82.6252 214.288 81.8732 212.96 81.0412 211.424C80.6252 210.688 80.0972 210.144 79.4572 209.792C79.0412 209.568 78.6092 209.408 78.1612 209.312C77.7452 209.216 77.3932 209.168 77.1052 209.168C76.9132 209.136 76.7692 209.216 76.6732 209.408C76.5772 209.6 76.5292 209.84 76.5292 210.128V219.056C76.5292 220.048 76.7852 220.816 77.2972 221.36C77.8412 221.904 78.7532 222.32 80.0332 222.608C80.4492 222.672 80.7533 222.784 80.9452 222.944C81.1372 223.072 81.2332 223.264 81.2332 223.52C81.2332 223.744 81.1372 223.904 80.9452 224C80.7852 224.096 80.5292 224.144 80.1772 224.144C79.4412 224.144 78.6892 224.112 77.9212 224.048C77.1532 224.016 76.4012 223.984 75.6652 223.952C74.9612 223.92 74.2892 223.904 73.6492 223.904C72.9452 223.904 72.2092 223.92 71.4412 223.952C70.7052 223.984 69.9532 224.032 69.1852 224.096C68.4172 224.16 67.6492 224.192 66.8812 224.192C66.5932 224.192 66.3372 224.128 66.1132 224C65.8892 223.904 65.7772 223.76 65.7772 223.568C65.7772 223.088 66.1772 222.768 66.9772 222.608C68.1932 222.352 69.0572 222 69.5692 221.552C70.0812 221.104 70.3372 220.352 70.3372 219.296V198.08C70.3372 197.152 70.2572 196.448 70.0972 195.968C69.9692 195.456 69.6972 195.072 69.2812 194.816C68.8652 194.56 68.2412 194.368 67.4092 194.24C66.9612 194.176 66.6412 194.048 66.4492 193.856C66.2572 193.664 66.1612 193.472 66.1612 193.28C66.1612 193.056 66.2572 192.896 66.4492 192.8C66.6732 192.672 66.9612 192.608 67.3132 192.608C68.2732 192.608 69.0412 192.624 69.6172 192.656C70.1932 192.688 70.7372 192.736 71.2492 192.8C71.7932 192.832 72.4332 192.848 73.1692 192.848C73.8732 192.848 74.4972 192.816 75.0412 192.752C75.5852 192.688 76.1932 192.624 76.8652 192.56C77.5372 192.496 78.4012 192.464 79.4572 192.464C83.1372 192.464 85.9532 193.104 87.9052 194.384C89.8572 195.664 90.8332 197.616 90.8332 200.24C90.8332 201.68 90.5292 202.912 89.9212 203.936C89.3132 204.928 88.5452 205.744 87.6172 206.384C86.7212 207.024 85.7932 207.52 84.8332 207.872C84.7052 207.904 84.6412 207.984 84.6412 208.112C84.6732 208.24 84.7372 208.352 84.8332 208.448C85.7932 209.92 86.7212 211.328 87.6172 212.672C88.5452 213.984 89.5052 215.232 90.4972 216.416C91.5212 217.6 92.6252 218.736 93.8092 219.824C94.8012 220.752 95.8092 221.312 96.8332 221.504C97.8892 221.664 98.9772 221.744 100.097 221.744C100.577 221.744 100.817 221.984 100.817 222.464C100.817 223.104 100.577 223.616 100.097 224C99.6172 224.352 98.9772 224.608 98.1772 224.768C97.4092 224.928 96.5772 225.008 95.6812 225.008ZM78.5932 207.776C79.9052 207.776 80.9932 207.488 81.8572 206.912C82.7532 206.304 83.4252 205.504 83.8732 204.512C84.3532 203.52 84.5932 202.416 84.5932 201.2C84.5932 199.76 84.4172 198.544 84.0652 197.552C83.7132 196.528 83.1052 195.744 82.2412 195.2C81.4092 194.624 80.2572 194.336 78.7852 194.336C77.9532 194.336 77.3772 194.64 77.0572 195.248C76.7692 195.824 76.6092 197.008 76.5772 198.8C76.5452 199.536 76.5292 200.512 76.5292 201.728C76.5292 202.912 76.5292 204.336 76.5292 206C76.5292 206.704 76.7052 207.184 77.0572 207.44C77.4412 207.664 77.9532 207.776 78.5932 207.776Z" fill="#E92300"/>
<path d="M112.536 224.24C112.184 224.24 111.896 224.176 111.672 224.048C111.48 223.92 111.384 223.76 111.384 223.568C111.384 223.152 111.8 222.848 112.632 222.656C113.784 222.368 114.6 222.016 115.08 221.6C115.592 221.152 115.848 220.4 115.848 219.344V197.6C115.848 196.512 115.624 195.744 115.176 195.296C114.76 194.848 113.96 194.496 112.776 194.24C112.328 194.144 112.008 194.016 111.816 193.856C111.624 193.664 111.528 193.472 111.528 193.28C111.528 193.056 111.624 192.896 111.816 192.8C112.04 192.672 112.328 192.608 112.68 192.608C113.608 192.608 114.488 192.624 115.32 192.656C116.184 192.688 117.016 192.72 117.816 192.752C118.616 192.784 119.448 192.8 120.312 192.8C121.784 192.8 123.336 192.784 124.968 192.752C126.632 192.72 128.12 192.704 129.432 192.704C130.488 192.672 131.352 192.624 132.024 192.56C132.728 192.496 133.144 192.464 133.272 192.464C133.496 192.464 133.72 192.512 133.944 192.608C134.2 192.704 134.344 192.896 134.376 193.184C134.504 194.24 134.664 195.28 134.856 196.304C135.048 197.328 135.144 198.224 135.144 198.992C135.144 199.28 135.064 199.504 134.904 199.664C134.776 199.792 134.632 199.856 134.472 199.856C134.312 199.856 134.168 199.808 134.04 199.712C133.912 199.584 133.8 199.408 133.704 199.184C133.448 198.448 133.208 197.808 132.984 197.264C132.76 196.72 132.504 196.304 132.216 196.016C131.8 195.568 131.32 195.216 130.776 194.96C130.232 194.704 129.576 194.576 128.808 194.576H124.344C123.768 194.576 123.24 194.752 122.76 195.104C122.28 195.424 122.04 195.888 122.04 196.496V205.904C122.04 206.256 122.136 206.528 122.328 206.72C122.552 206.912 122.808 207.008 123.096 207.008H127.512C128.376 207.008 128.984 206.768 129.336 206.288C129.72 205.808 130.04 205.152 130.296 204.32C130.52 203.68 130.824 203.36 131.208 203.36C131.368 203.36 131.512 203.456 131.64 203.648C131.768 203.808 131.832 204.032 131.832 204.32C131.8 204.64 131.768 205.024 131.736 205.472C131.704 205.92 131.672 206.368 131.64 206.816C131.64 207.264 131.64 207.664 131.64 208.016C131.64 208.4 131.64 208.832 131.64 209.312C131.672 209.792 131.688 210.272 131.688 210.752C131.72 211.2 131.752 211.584 131.784 211.904C131.816 212.256 131.784 212.528 131.688 212.72C131.624 212.912 131.496 213.008 131.304 213.008C130.792 213.008 130.424 212.56 130.2 211.664C129.944 210.768 129.64 210.096 129.288 209.648C128.936 209.2 128.456 208.976 127.848 208.976H123.336C122.92 208.976 122.6 209.056 122.376 209.216C122.152 209.376 122.04 209.68 122.04 210.128V219.248C122.04 220.304 122.264 221.04 122.712 221.456C123.16 221.872 123.848 222.08 124.776 222.08H128.712C129.512 222.08 130.232 222 130.872 221.84C131.544 221.68 132.12 221.424 132.6 221.072C133.144 220.688 133.624 220.176 134.04 219.536C134.488 218.864 134.92 218.128 135.336 217.328C135.464 217.072 135.592 216.912 135.72 216.848C135.848 216.752 136.008 216.704 136.2 216.704C136.36 216.736 136.472 216.832 136.536 216.992C136.632 217.152 136.68 217.328 136.68 217.52C136.68 217.968 136.6 218.544 136.44 219.248C136.28 219.952 136.072 220.688 135.816 221.456C135.592 222.192 135.384 222.88 135.192 223.52C135.096 223.744 134.968 223.904 134.808 224C134.648 224.128 134.456 224.192 134.232 224.192C133.464 224.192 132.472 224.176 131.256 224.144C130.072 224.144 128.776 224.128 127.368 224.096C125.96 224.064 124.52 224.032 123.048 224C121.576 224 120.168 224 118.824 224C118.152 224 117.464 224.016 116.76 224.048C116.088 224.08 115.4 224.112 114.696 224.144C113.992 224.208 113.272 224.24 112.536 224.24Z" fill="#E92300"/>
<path d="M157.478 224.72C156.102 224.72 154.79 224.544 153.542 224.192C152.326 223.84 151.206 223.312 150.182 222.608C149.99 222.448 149.814 222.288 149.654 222.128C149.494 221.936 149.366 221.728 149.27 221.504C149.014 220.704 148.838 219.728 148.742 218.576C148.646 217.392 148.614 216.256 148.646 215.168C148.646 214.944 148.726 214.784 148.886 214.688C149.078 214.592 149.302 214.544 149.558 214.544C149.814 214.544 150.006 214.592 150.134 214.688C150.294 214.752 150.406 214.896 150.47 215.12C151.174 217.52 152.198 219.392 153.542 220.736C154.886 222.08 156.406 222.752 158.102 222.752C159.158 222.752 160.054 222.512 160.79 222.032C161.526 221.552 162.086 220.928 162.47 220.16C162.854 219.392 163.046 218.56 163.046 217.664C163.046 216.544 162.838 215.616 162.422 214.88C162.038 214.144 161.446 213.488 160.646 212.912C159.846 212.304 158.838 211.664 157.622 210.992C156.31 210.224 155.03 209.424 153.782 208.592C152.534 207.728 151.51 206.72 150.71 205.568C149.91 204.384 149.51 202.928 149.51 201.2C149.51 199.408 149.958 197.84 150.854 196.496C151.782 195.12 153.062 194.048 154.694 193.28C156.326 192.512 158.214 192.128 160.358 192.128C161.542 192.128 162.646 192.256 163.67 192.512C164.694 192.768 165.51 193.024 166.118 193.28C166.47 193.408 166.726 193.568 166.886 193.76C167.078 193.952 167.222 194.256 167.318 194.672C167.51 195.344 167.67 196.144 167.798 197.072C167.958 198 168.038 198.976 168.038 200C168.038 200.384 167.75 200.576 167.174 200.576C166.918 200.576 166.662 200.512 166.406 200.384C166.15 200.256 165.99 200.08 165.926 199.856C165.35 198 164.55 196.592 163.526 195.632C162.534 194.672 161.302 194.192 159.83 194.192C158.838 194.192 157.99 194.368 157.286 194.72C156.582 195.04 156.022 195.552 155.606 196.256C155.19 196.928 154.982 197.808 154.982 198.896C154.982 199.728 155.254 200.496 155.798 201.2C156.374 201.904 157.158 202.592 158.15 203.264C159.174 203.936 160.31 204.672 161.558 205.472C163.094 206.368 164.374 207.28 165.398 208.208C166.454 209.104 167.254 210.112 167.798 211.232C168.342 212.32 168.614 213.616 168.614 215.12C168.614 217.232 168.15 219.008 167.222 220.448C166.294 221.856 164.998 222.928 163.334 223.664C161.67 224.368 159.718 224.72 157.478 224.72Z" fill="#E92300"/>
<path d="M182.408 224.24C182.056 224.24 181.768 224.176 181.544 224.048C181.352 223.92 181.256 223.76 181.256 223.568C181.256 223.152 181.672 222.848 182.504 222.656C183.656 222.368 184.472 222.016 184.952 221.6C185.464 221.152 185.72 220.4 185.72 219.344V197.6C185.72 196.512 185.496 195.744 185.048 195.296C184.632 194.848 183.832 194.496 182.648 194.24C182.2 194.144 181.88 194.016 181.688 193.856C181.496 193.664 181.4 193.472 181.4 193.28C181.4 193.056 181.496 192.896 181.688 192.8C181.912 192.672 182.2 192.608 182.552 192.608C183.48 192.608 184.36 192.624 185.192 192.656C186.056 192.688 186.888 192.72 187.688 192.752C188.488 192.784 189.32 192.8 190.184 192.8C191.656 192.8 193.208 192.784 194.84 192.752C196.504 192.72 197.992 192.704 199.304 192.704C200.36 192.672 201.224 192.624 201.896 192.56C202.6 192.496 203.016 192.464 203.144 192.464C203.368 192.464 203.592 192.512 203.816 192.608C204.072 192.704 204.216 192.896 204.248 193.184C204.376 194.24 204.536 195.28 204.728 196.304C204.92 197.328 205.016 198.224 205.016 198.992C205.016 199.28 204.936 199.504 204.776 199.664C204.648 199.792 204.504 199.856 204.344 199.856C204.184 199.856 204.04 199.808 203.912 199.712C203.784 199.584 203.672 199.408 203.576 199.184C203.32 198.448 203.08 197.808 202.856 197.264C202.632 196.72 202.376 196.304 202.088 196.016C201.672 195.568 201.192 195.216 200.648 194.96C200.104 194.704 199.448 194.576 198.68 194.576H194.216C193.64 194.576 193.112 194.752 192.632 195.104C192.152 195.424 191.912 195.888 191.912 196.496V205.904C191.912 206.256 192.008 206.528 192.2 206.72C192.424 206.912 192.68 207.008 192.968 207.008H197.384C198.248 207.008 198.856 206.768 199.208 206.288C199.592 205.808 199.912 205.152 200.168 204.32C200.392 203.68 200.696 203.36 201.08 203.36C201.24 203.36 201.384 203.456 201.512 203.648C201.64 203.808 201.704 204.032 201.704 204.32C201.672 204.64 201.64 205.024 201.608 205.472C201.576 205.92 201.544 206.368 201.512 206.816C201.512 207.264 201.512 207.664 201.512 208.016C201.512 208.4 201.512 208.832 201.512 209.312C201.544 209.792 201.56 210.272 201.56 210.752C201.592 211.2 201.624 211.584 201.656 211.904C201.688 212.256 201.656 212.528 201.56 212.72C201.496 212.912 201.368 213.008 201.176 213.008C200.664 213.008 200.296 212.56 200.072 211.664C199.816 210.768 199.512 210.096 199.16 209.648C198.808 209.2 198.328 208.976 197.72 208.976H193.208C192.792 208.976 192.472 209.056 192.248 209.216C192.024 209.376 191.912 209.68 191.912 210.128V219.248C191.912 220.304 192.136 221.04 192.584 221.456C193.032 221.872 193.72 222.08 194.648 222.08H198.584C199.384 222.08 200.104 222 200.744 221.84C201.416 221.68 201.992 221.424 202.472 221.072C203.016 220.688 203.496 220.176 203.912 219.536C204.36 218.864 204.792 218.128 205.208 217.328C205.336 217.072 205.464 216.912 205.592 216.848C205.72 216.752 205.88 216.704 206.072 216.704C206.232 216.736 206.344 216.832 206.408 216.992C206.504 217.152 206.552 217.328 206.552 217.52C206.552 217.968 206.472 218.544 206.312 219.248C206.152 219.952 205.944 220.688 205.688 221.456C205.464 222.192 205.256 222.88 205.064 223.52C204.968 223.744 204.84 223.904 204.68 224C204.52 224.128 204.328 224.192 204.104 224.192C203.336 224.192 202.344 224.176 201.128 224.144C199.944 224.144 198.648 224.128 197.24 224.096C195.832 224.064 194.392 224.032 192.92 224C191.448 224 190.04 224 188.696 224C188.024 224 187.336 224.016 186.632 224.048C185.96 224.08 185.272 224.112 184.568 224.144C183.864 224.208 183.144 224.24 182.408 224.24Z" fill="#E92300"/>
<path d="M249.526 224.864C249.142 224.864 248.502 224.624 247.606 224.144C246.71 223.664 245.798 222.832 244.87 221.648C244.326 221.04 243.654 220.304 242.854 219.44C242.086 218.544 241.222 217.568 240.262 216.512C239.334 215.456 238.358 214.352 237.334 213.2C236.31 212.048 235.286 210.896 234.262 209.744C233.27 208.592 232.294 207.488 231.334 206.432C230.374 205.376 229.494 204.416 228.694 203.552C227.894 202.656 227.222 201.888 226.678 201.248C226.55 201.088 226.406 200.96 226.246 200.864C226.118 200.736 226.006 200.672 225.91 200.672C225.782 200.672 225.686 200.784 225.622 201.008C225.558 201.232 225.526 201.44 225.526 201.632C225.526 203.104 225.526 204.848 225.526 206.864C225.558 208.88 225.574 210.928 225.574 213.008C225.574 215.088 225.574 217.008 225.574 218.768C225.574 219.76 225.862 220.576 226.438 221.216C227.014 221.856 227.926 222.32 229.174 222.608C229.558 222.672 229.878 222.784 230.134 222.944C230.422 223.072 230.566 223.264 230.566 223.52C230.566 223.744 230.438 223.904 230.182 224C229.926 224.096 229.638 224.144 229.318 224.144C228.454 224.144 227.766 224.128 227.254 224.096C226.742 224.064 226.278 224.032 225.862 224C225.446 223.968 224.918 223.952 224.278 223.952C223.606 223.952 222.998 223.968 222.454 224C221.942 224.032 221.478 224.064 221.062 224.096C220.646 224.16 220.246 224.192 219.862 224.192C219.542 224.192 219.254 224.128 218.998 224C218.742 223.904 218.614 223.76 218.614 223.568C218.614 223.312 218.726 223.12 218.95 222.992C219.206 222.832 219.542 222.688 219.958 222.56C220.79 222.304 221.398 221.84 221.782 221.168C222.198 220.464 222.454 219.632 222.55 218.672C222.678 217.456 222.806 215.872 222.934 213.92C223.062 211.936 223.174 209.712 223.27 207.248C223.398 204.784 223.462 202.24 223.462 199.616C223.462 197.952 223.03 196.752 222.166 196.016C221.334 195.28 220.278 194.688 218.998 194.24C218.774 194.176 218.486 194.048 218.134 193.856C217.782 193.664 217.606 193.424 217.606 193.136C217.606 192.848 217.734 192.656 217.99 192.56C218.246 192.464 218.518 192.416 218.806 192.416C219.478 192.416 220.15 192.432 220.822 192.464C221.494 192.496 222.166 192.528 222.838 192.56C223.542 192.56 224.262 192.576 224.998 192.608C225.766 192.64 226.582 192.656 227.446 192.656C227.734 192.656 227.942 192.72 228.07 192.848C228.23 192.944 228.374 193.088 228.502 193.28C229.014 193.888 229.67 194.656 230.47 195.584C231.27 196.48 232.134 197.488 233.062 198.608C234.022 199.696 235.014 200.848 236.038 202.064C237.094 203.28 238.134 204.496 239.158 205.712C240.214 206.928 241.222 208.096 242.182 209.216C243.142 210.304 244.006 211.312 244.774 212.24C245.574 213.136 246.23 213.872 246.742 214.448C246.87 214.576 247.014 214.736 247.174 214.928C247.366 215.12 247.526 215.216 247.654 215.216C247.91 215.216 248.054 214.944 248.086 214.4C248.086 213.568 248.086 212.512 248.086 211.232C248.086 209.92 248.086 208.48 248.086 206.912C248.118 205.312 248.118 203.68 248.086 202.016C248.086 200.352 248.07 198.752 248.038 197.216C248.006 196.416 247.67 195.792 247.03 195.344C246.422 194.864 245.654 194.528 244.726 194.336C244.342 194.24 243.974 194.128 243.622 194C243.302 193.84 243.142 193.616 243.142 193.328C243.142 193.104 243.302 192.944 243.622 192.848C243.974 192.752 244.294 192.704 244.582 192.704C245.222 192.704 245.75 192.704 246.166 192.704C246.614 192.704 247.03 192.72 247.414 192.752C247.798 192.752 248.198 192.752 248.614 192.752C249.318 192.752 249.894 192.752 250.342 192.752C250.79 192.72 251.27 192.688 251.782 192.656C252.326 192.624 253.03 192.608 253.894 192.608C254.278 192.608 254.582 192.672 254.806 192.8C255.062 192.896 255.19 193.04 255.19 193.232C255.19 193.712 254.726 194.048 253.798 194.24C252.678 194.464 251.878 194.768 251.398 195.152C250.95 195.536 250.71 196.176 250.678 197.072C250.678 197.872 250.662 198.896 250.63 200.144C250.63 201.392 250.614 202.752 250.582 204.224C250.55 205.696 250.502 207.2 250.438 208.736C250.406 210.272 250.374 211.776 250.342 213.248C250.342 214.72 250.342 216.048 250.342 217.232C250.342 218 250.374 218.784 250.438 219.584C250.502 220.384 250.566 221.104 250.63 221.744C250.726 222.352 250.774 222.784 250.774 223.04C250.774 223.744 250.662 224.224 250.438 224.48C250.214 224.736 249.91 224.864 249.526 224.864Z" fill="#E92300"/>
<path d="M275.288 224.192C274.968 224.192 274.68 224.128 274.424 224C274.2 223.904 274.088 223.76 274.088 223.568C274.088 223.312 274.2 223.104 274.424 222.944C274.648 222.784 274.968 222.672 275.384 222.608C276.6 222.352 277.496 222 278.072 221.552C278.648 221.072 278.936 220.304 278.936 219.248V199.808C278.936 198.496 278.904 197.504 278.84 196.832C278.776 196.16 278.68 195.712 278.552 195.488C278.456 195.232 278.296 195.088 278.072 195.056C277.752 194.928 277.352 194.848 276.872 194.816C276.392 194.784 275.928 194.768 275.48 194.768H273.992C273.064 194.768 272.168 194.992 271.304 195.44C270.44 195.856 269.768 196.432 269.288 197.168C269.16 197.36 268.952 197.632 268.664 197.984C268.408 198.336 268.12 198.656 267.8 198.944C267.512 199.232 267.208 199.376 266.888 199.376C266.664 199.376 266.504 199.296 266.408 199.136C266.344 198.976 266.312 198.8 266.312 198.608C266.312 198.224 266.408 197.84 266.6 197.456C267.144 196.368 267.544 195.424 267.8 194.624C268.088 193.792 268.28 192.816 268.376 191.696C268.44 191.216 268.568 190.912 268.76 190.784C268.984 190.624 269.208 190.544 269.432 190.544C269.624 190.544 269.848 190.752 270.104 191.168C270.392 191.552 270.648 191.872 270.872 192.128C271.16 192.416 271.672 192.64 272.408 192.8C273.144 192.928 273.768 192.992 274.28 192.992L291.992 192.944C292.888 192.944 293.64 192.88 294.248 192.752C294.856 192.592 295.336 192.432 295.688 192.272C296.168 191.984 296.552 191.696 296.84 191.408C297.128 191.088 297.464 190.928 297.848 190.928C298.008 190.928 298.12 191.024 298.184 191.216C298.28 191.376 298.328 191.584 298.328 191.84C298.328 192 298.312 192.192 298.28 192.416C298.248 192.608 298.216 192.784 298.184 192.944C298.056 193.552 297.928 194.096 297.8 194.576C297.672 195.024 297.56 195.456 297.464 195.872C297.4 196.256 297.368 196.704 297.368 197.216V198.032C297.368 198.48 297.304 198.864 297.176 199.184C297.048 199.504 296.84 199.664 296.552 199.664C296.296 199.664 296.072 199.52 295.88 199.232C295.72 198.912 295.544 198.432 295.352 197.792C295.064 196.768 294.584 196.016 293.912 195.536C293.24 195.024 292.184 194.768 290.744 194.768H287.48C286.872 194.768 286.392 194.88 286.04 195.104C285.72 195.328 285.48 195.824 285.32 196.592C285.192 197.328 285.128 198.48 285.128 200.048V219.2C285.128 220.224 285.416 220.976 285.992 221.456C286.568 221.904 287.48 222.288 288.728 222.608C289.112 222.704 289.416 222.816 289.64 222.944C289.864 223.072 289.976 223.264 289.976 223.52C289.976 223.744 289.864 223.904 289.64 224C289.448 224.096 289.192 224.144 288.872 224.144C288.104 224.144 287.336 224.128 286.568 224.096C285.8 224.064 285.032 224.032 284.264 224C283.528 223.968 282.808 223.952 282.104 223.952C281.4 223.952 280.664 223.968 279.896 224C279.16 224.032 278.392 224.064 277.592 224.096C276.824 224.16 276.056 224.192 275.288 224.192Z" fill="#E92300"/>
<path d="M318.081 224.72C316.705 224.72 315.393 224.544 314.145 224.192C312.929 223.84 311.809 223.312 310.785 222.608C310.593 222.448 310.417 222.288 310.257 222.128C310.097 221.936 309.969 221.728 309.873 221.504C309.617 220.704 309.441 219.728 309.345 218.576C309.249 217.392 309.217 216.256 309.249 215.168C309.249 214.944 309.329 214.784 309.489 214.688C309.681 214.592 309.905 214.544 310.161 214.544C310.417 214.544 310.609 214.592 310.737 214.688C310.897 214.752 311.009 214.896 311.073 215.12C311.777 217.52 312.801 219.392 314.145 220.736C315.489 222.08 317.009 222.752 318.705 222.752C319.761 222.752 320.657 222.512 321.393 222.032C322.129 221.552 322.689 220.928 323.073 220.16C323.457 219.392 323.649 218.56 323.649 217.664C323.649 216.544 323.441 215.616 323.025 214.88C322.641 214.144 322.049 213.488 321.249 212.912C320.449 212.304 319.441 211.664 318.225 210.992C316.913 210.224 315.633 209.424 314.385 208.592C313.137 207.728 312.113 206.72 311.313 205.568C310.513 204.384 310.113 202.928 310.113 201.2C310.113 199.408 310.561 197.84 311.457 196.496C312.385 195.12 313.665 194.048 315.297 193.28C316.929 192.512 318.817 192.128 320.961 192.128C322.145 192.128 323.249 192.256 324.273 192.512C325.297 192.768 326.113 193.024 326.721 193.28C327.073 193.408 327.329 193.568 327.489 193.76C327.681 193.952 327.825 194.256 327.921 194.672C328.113 195.344 328.273 196.144 328.401 197.072C328.561 198 328.641 198.976 328.641 200C328.641 200.384 328.353 200.576 327.777 200.576C327.521 200.576 327.265 200.512 327.009 200.384C326.753 200.256 326.593 200.08 326.529 199.856C325.953 198 325.153 196.592 324.129 195.632C323.137 194.672 321.905 194.192 320.433 194.192C319.441 194.192 318.593 194.368 317.889 194.72C317.185 195.04 316.625 195.552 316.209 196.256C315.793 196.928 315.585 197.808 315.585 198.896C315.585 199.728 315.857 200.496 316.401 201.2C316.977 201.904 317.761 202.592 318.753 203.264C319.777 203.936 320.913 204.672 322.161 205.472C323.697 206.368 324.977 207.28 326.001 208.208C327.057 209.104 327.857 210.112 328.401 211.232C328.945 212.32 329.217 213.616 329.217 215.12C329.217 217.232 328.753 219.008 327.825 220.448C326.897 221.856 325.601 222.928 323.937 223.664C322.273 224.368 320.321 224.72 318.081 224.72Z" fill="#E92300"/>
<path d="M140.4 151.56C138.88 151.56 137.493 151.213 136.24 150.52C135.013 149.8 134.04 148.827 133.32 147.6C132.6 146.373 132.24 144.973 132.24 143.4C132.24 142.227 132.466 141.093 132.92 140C133.373 138.907 134.013 137.92 134.84 137.04C135.666 136.16 136.626 135.467 137.72 134.96C138.813 134.427 139.986 134.16 141.24 134.16C142.813 134.16 144.24 134.547 145.52 135.32C146.8 136.067 147.813 137.053 148.56 138.28C149.306 139.507 149.68 140.853 149.68 142.32C149.68 143.92 149.333 145.427 148.64 146.84C147.946 148.253 146.906 149.4 145.52 150.28C144.16 151.133 142.453 151.56 140.4 151.56ZM141.24 150.16C142.013 150.16 142.706 150.013 143.32 149.72C143.933 149.4 144.413 148.92 144.76 148.28C145.08 147.667 145.293 146.92 145.4 146.04C145.533 145.133 145.6 144.213 145.6 143.28C145.6 141.947 145.386 140.693 144.96 139.52C144.533 138.347 143.946 137.4 143.2 136.68C142.453 135.96 141.573 135.6 140.56 135.6C139.946 135.6 139.386 135.707 138.88 135.92C138.4 136.107 137.96 136.44 137.56 136.92C137.053 137.533 136.72 138.333 136.56 139.32C136.4 140.28 136.32 141.333 136.32 142.48C136.32 143.76 136.533 144.987 136.96 146.16C137.386 147.333 137.96 148.293 138.68 149.04C139.426 149.787 140.28 150.16 141.24 150.16Z" fill="#E92300"/>
<path d="M156.642 151.12C156.402 151.12 156.202 151.08 156.042 151C155.908 150.92 155.842 150.8 155.842 150.64C155.842 150.427 155.922 150.28 156.082 150.2C156.268 150.093 156.495 150 156.762 149.92C157.162 149.787 157.535 149.613 157.882 149.4C158.228 149.16 158.402 148.773 158.402 148.24V136.92C158.135 136.92 157.828 136.92 157.482 136.92C157.135 136.893 156.748 136.867 156.322 136.84C156.215 136.813 156.095 136.707 155.962 136.52C155.828 136.307 155.762 136.12 155.762 135.96C155.762 135.907 155.802 135.853 155.882 135.8C155.962 135.747 156.028 135.707 156.082 135.68C156.615 135.52 157.028 135.36 157.322 135.2C157.642 135.04 158.002 134.867 158.402 134.68C158.455 132.813 158.788 131.227 159.402 129.92C160.015 128.587 160.788 127.52 161.722 126.72C162.682 125.893 163.682 125.293 164.722 124.92C165.788 124.52 166.788 124.32 167.722 124.32C169.322 124.32 170.575 124.6 171.482 125.16C172.388 125.72 172.842 126.293 172.842 126.88C172.842 127.36 172.655 127.787 172.282 128.16C171.935 128.507 171.548 128.68 171.122 128.68C170.882 128.68 170.655 128.587 170.442 128.4C170.255 128.187 170.028 127.947 169.762 127.68C169.415 127.307 168.962 126.96 168.402 126.64C167.868 126.293 167.162 126.12 166.282 126.12C165.028 126.12 164.015 126.693 163.242 127.84C162.468 128.987 162.082 130.813 162.082 133.32V133.84C162.082 134.187 162.175 134.427 162.362 134.56C162.575 134.667 162.815 134.72 163.082 134.72H170.722C170.828 134.72 170.882 134.867 170.882 135.16C170.882 135.373 170.855 135.613 170.802 135.88C170.748 136.147 170.682 136.387 170.602 136.6C170.548 136.787 170.468 136.88 170.362 136.88H163.682C162.962 136.88 162.508 136.96 162.322 137.12C162.162 137.253 162.082 137.427 162.082 137.64V148.2C162.082 148.707 162.268 149.093 162.642 149.36C163.015 149.627 163.442 149.813 163.922 149.92C164.188 149.973 164.402 150.053 164.562 150.16C164.722 150.267 164.802 150.427 164.802 150.64C164.802 150.8 164.735 150.92 164.602 151C164.468 151.08 164.282 151.12 164.042 151.12C163.508 151.12 163.042 151.093 162.642 151.04C162.268 151.013 161.908 150.987 161.562 150.96C161.215 150.933 160.802 150.92 160.322 150.92C159.868 150.92 159.455 150.933 159.082 150.96C158.735 150.987 158.375 151.013 158.002 151.04C157.628 151.093 157.175 151.12 156.642 151.12ZM167.562 151.12C167.348 151.12 167.162 151.08 167.002 151C166.842 150.92 166.762 150.8 166.762 150.64C166.762 150.427 166.842 150.28 167.002 150.2C167.162 150.093 167.375 150.013 167.642 149.96C168.308 149.8 168.762 149.6 169.002 149.36C169.242 149.12 169.362 148.747 169.362 148.24V136.92C169.095 136.92 168.788 136.92 168.442 136.92C168.095 136.893 167.708 136.867 167.282 136.84C167.175 136.813 167.055 136.707 166.922 136.52C166.788 136.307 166.722 136.12 166.722 135.96C166.722 135.907 166.762 135.853 166.842 135.8C166.922 135.747 166.975 135.707 167.002 135.68C167.455 135.467 167.855 135.28 168.202 135.12C168.548 134.933 168.935 134.747 169.362 134.56C169.388 132.293 169.708 130.4 170.322 128.88C170.935 127.36 171.708 126.16 172.642 125.28C173.602 124.373 174.615 123.733 175.682 123.36C176.748 122.96 177.748 122.76 178.682 122.76C180.282 122.76 181.455 123 182.202 123.48C182.975 123.933 183.362 124.573 183.362 125.4C183.362 125.96 183.215 126.4 182.922 126.72C182.655 127.013 182.322 127.16 181.922 127.16C181.682 127.16 181.455 127.067 181.242 126.88C181.028 126.667 180.788 126.427 180.522 126.16C180.122 125.76 179.642 125.387 179.082 125.04C178.548 124.667 177.855 124.48 177.002 124.48C175.802 124.48 174.828 125 174.082 126.04C173.362 127.053 173.002 128.653 173.002 130.84V134.28C173.002 134.467 173.055 134.587 173.162 134.64C173.268 134.693 173.388 134.72 173.522 134.72H178.362C178.522 134.72 178.655 134.773 178.762 134.88C178.868 134.987 178.922 135.107 178.922 135.24C178.922 135.453 178.895 135.68 178.842 135.92C178.788 136.133 178.722 136.32 178.642 136.48C178.535 136.693 178.415 136.8 178.282 136.8H174.002C173.602 136.8 173.335 136.867 173.202 137C173.068 137.107 173.002 137.267 173.002 137.48V148C173.002 148.587 173.175 149.013 173.522 149.28C173.868 149.547 174.575 149.76 175.642 149.92C176.228 150.027 176.522 150.253 176.522 150.6C176.522 150.76 176.455 150.893 176.322 151C176.188 151.08 176.002 151.12 175.762 151.12C174.962 151.12 174.188 151.08 173.442 151C172.695 150.947 171.975 150.92 171.282 150.92C170.828 150.92 170.415 150.933 170.042 150.96C169.695 150.987 169.322 151.013 168.922 151.04C168.548 151.093 168.095 151.12 167.562 151.12Z" fill="#E92300"/>
<path d="M197.535 151.12C197.295 151.12 197.095 151.08 196.935 151C196.802 150.92 196.735 150.8 196.735 150.64C196.735 150.427 196.815 150.28 196.975 150.2C197.162 150.093 197.388 150 197.655 149.92C198.215 149.787 198.602 149.6 198.815 149.36C199.055 149.12 199.175 148.8 199.175 148.4V139.6C199.175 138.933 199.082 138.373 198.895 137.92C198.708 137.44 198.308 137.133 197.695 137C197.588 136.973 197.482 136.907 197.375 136.8C197.295 136.693 197.255 136.56 197.255 136.4C197.255 136.107 197.388 135.92 197.655 135.84C198.402 135.627 199.202 135.333 200.055 134.96C200.908 134.56 201.602 134.213 202.135 133.92C202.295 133.813 202.442 133.733 202.575 133.68C202.708 133.627 202.802 133.6 202.855 133.6C203.042 133.6 203.135 133.707 203.135 133.92C203.135 134.027 203.122 134.253 203.095 134.6C203.095 134.947 203.082 135.333 203.055 135.76C203.028 136.187 203.015 136.6 203.015 137C203.015 137.107 203.042 137.16 203.095 137.16C203.522 136.627 203.988 136.133 204.495 135.68C205.028 135.227 205.588 134.867 206.175 134.6C206.762 134.307 207.322 134.16 207.855 134.16C208.548 134.16 209.082 134.307 209.455 134.6C209.828 134.867 210.015 135.227 210.015 135.68C210.015 135.973 209.922 136.32 209.735 136.72C209.575 137.093 209.348 137.427 209.055 137.72C208.788 137.987 208.495 138.12 208.175 138.12C207.988 138.12 207.788 138.08 207.575 138C207.362 137.893 207.135 137.787 206.895 137.68C206.682 137.573 206.455 137.48 206.215 137.4C206.002 137.293 205.788 137.24 205.575 137.24C204.908 137.24 204.295 137.48 203.735 137.96C203.175 138.44 202.895 139.373 202.895 140.76V148.28C202.895 148.707 203.068 149.04 203.415 149.28C203.762 149.52 204.282 149.747 204.975 149.96C205.268 150.04 205.495 150.133 205.655 150.24C205.815 150.32 205.895 150.453 205.895 150.64C205.895 150.96 205.642 151.12 205.135 151.12C204.335 151.12 203.642 151.08 203.055 151C202.495 150.947 201.868 150.92 201.175 150.92C200.722 150.92 200.322 150.933 199.975 150.96C199.628 150.987 199.268 151.013 198.895 151.04C198.522 151.093 198.068 151.12 197.535 151.12Z" fill="#E92300"/>
<path d="M222.511 151.6C221.071 151.6 219.791 151.24 218.671 150.52C217.578 149.773 216.711 148.747 216.071 147.44C215.431 146.107 215.111 144.573 215.111 142.84C215.111 141.267 215.471 139.827 216.191 138.52C216.938 137.213 217.924 136.173 219.151 135.4C220.378 134.6 221.724 134.2 223.191 134.2C224.284 134.2 225.258 134.427 226.111 134.88C226.991 135.307 227.671 135.92 228.151 136.72C228.658 137.493 228.911 138.387 228.911 139.4C228.911 140.28 228.498 140.72 227.671 140.72H219.391C219.018 140.72 218.751 140.827 218.591 141.04C218.431 141.253 218.351 141.64 218.351 142.2C218.351 143.373 218.618 144.453 219.151 145.44C219.684 146.4 220.391 147.173 221.271 147.76C222.151 148.347 223.124 148.64 224.191 148.64C224.991 148.64 225.711 148.493 226.351 148.2C227.018 147.88 227.631 147.44 228.191 146.88C228.271 146.773 228.338 146.693 228.391 146.64C228.471 146.587 228.551 146.56 228.631 146.56C228.871 146.56 228.991 146.707 228.991 147C228.991 147.427 228.804 147.933 228.431 148.52C228.058 149.08 227.578 149.6 226.991 150.08C226.431 150.533 225.764 150.893 224.991 151.16C224.244 151.453 223.418 151.6 222.511 151.6ZM219.431 139.36H222.631C223.324 139.36 223.871 139.347 224.271 139.32C224.671 139.293 225.044 139.24 225.391 139.16C225.524 139.107 225.618 139 225.671 138.84C225.724 138.653 225.751 138.427 225.751 138.16C225.751 137.413 225.444 136.787 224.831 136.28C224.218 135.747 223.484 135.48 222.631 135.48C222.044 135.48 221.458 135.653 220.871 136C220.311 136.347 219.844 136.787 219.471 137.32C219.098 137.827 218.924 138.347 218.951 138.88C218.951 139.2 219.111 139.36 219.431 139.36Z" fill="#E92300"/>
<path d="M238.887 151.56C238.327 151.56 237.78 151.373 237.247 151C236.713 150.653 236.273 150.213 235.927 149.68C235.58 149.12 235.407 148.573 235.407 148.04C235.407 147.16 235.647 146.453 236.127 145.92C236.633 145.387 237.407 144.907 238.447 144.48L242.327 142.84C242.86 142.627 243.18 142.44 243.287 142.28C243.393 142.093 243.46 141.733 243.487 141.2L243.567 138.76C243.593 138.04 243.42 137.44 243.047 136.96C242.673 136.48 242.127 136.24 241.407 136.24C241.033 136.24 240.647 136.32 240.247 136.48C239.873 136.613 239.567 136.773 239.327 136.96C239.193 137.067 239.1 137.213 239.047 137.4C239.02 137.587 239.007 137.787 239.007 138C239.007 138.133 239.007 138.293 239.007 138.48C239.033 138.64 239.047 138.773 239.047 138.88C239.047 139.04 238.86 139.24 238.487 139.48C238.14 139.693 237.727 139.893 237.247 140.08C236.793 140.267 236.407 140.36 236.087 140.36C235.927 140.36 235.793 140.32 235.687 140.24C235.607 140.133 235.567 140 235.567 139.84C235.567 139.413 235.7 138.973 235.967 138.52C236.26 138.04 236.687 137.56 237.247 137.08C237.887 136.52 238.58 136.027 239.327 135.6C240.1 135.147 240.847 134.8 241.567 134.56C242.313 134.32 242.967 134.2 243.527 134.2C244.647 134.2 245.553 134.587 246.247 135.36C246.967 136.107 247.3 137.08 247.247 138.28L247.047 147.32C247.02 147.907 247.14 148.387 247.407 148.76C247.673 149.133 248.007 149.32 248.407 149.32C249.02 149.32 249.5 149.16 249.847 148.84C249.953 148.733 250.047 148.68 250.127 148.68C250.26 148.68 250.367 148.72 250.447 148.8C250.553 148.88 250.607 148.987 250.607 149.12C250.607 149.44 250.42 149.773 250.047 150.12C249.593 150.573 249.1 150.92 248.567 151.16C248.06 151.427 247.567 151.56 247.087 151.56C245.753 151.56 244.687 150.84 243.887 149.4H243.767C242.887 150.147 242.06 150.693 241.287 151.04C240.513 151.387 239.713 151.56 238.887 151.56ZM240.967 149.4C241.42 149.4 241.793 149.333 242.087 149.2C242.407 149.04 242.687 148.827 242.927 148.56C243.06 148.427 243.153 148.267 243.207 148.08C243.287 147.867 243.34 147.547 243.367 147.12L243.447 144.84C243.473 144.573 243.46 144.387 243.407 144.28C243.353 144.147 243.247 144.08 243.087 144.08C243.033 144.08 242.953 144.093 242.847 144.12C242.74 144.147 242.593 144.2 242.407 144.28C241.207 144.733 240.367 145.213 239.887 145.72C239.407 146.2 239.167 146.733 239.167 147.32C239.167 148.04 239.353 148.573 239.727 148.92C240.127 149.24 240.54 149.4 240.967 149.4Z" fill="#E92300"/>
<path d="M256.09 151.12C255.903 151.12 255.717 151.093 255.53 151.04C255.37 150.987 255.29 150.867 255.29 150.68C255.29 150.467 255.383 150.32 255.57 150.24C255.757 150.133 255.97 150.027 256.21 149.92C256.61 149.787 256.983 149.64 257.33 149.48C257.677 149.32 257.85 148.96 257.85 148.4V128.6C257.85 127.827 257.717 127.187 257.45 126.68C257.21 126.147 256.757 125.813 256.09 125.68C255.877 125.627 255.77 125.44 255.77 125.12C255.77 124.827 255.863 124.653 256.05 124.6C256.743 124.467 257.397 124.293 258.01 124.08C258.623 123.867 259.197 123.653 259.73 123.44C260.263 123.227 260.743 123.04 261.17 122.88C261.33 122.827 261.45 122.8 261.53 122.8C261.61 122.8 261.663 122.84 261.69 122.92C261.743 123 261.77 123.08 261.77 123.16C261.77 123.373 261.73 123.827 261.65 124.52C261.57 125.213 261.53 126.253 261.53 127.64V148.4C261.53 148.933 261.703 149.293 262.05 149.48C262.397 149.64 262.77 149.787 263.17 149.92C263.41 150 263.623 150.093 263.81 150.2C263.997 150.307 264.09 150.467 264.09 150.68C264.09 150.84 263.997 150.947 263.81 151C263.65 151.053 263.477 151.08 263.29 151.08C262.783 151.08 262.343 151.067 261.97 151.04C261.597 151.013 261.237 150.987 260.89 150.96C260.543 150.933 260.13 150.92 259.65 150.92C259.197 150.92 258.797 150.933 258.45 150.96C258.103 150.987 257.757 151.013 257.41 151.04C257.063 151.093 256.623 151.12 256.09 151.12Z" fill="#E92300"/>
<path d="M270.484 151.12C270.271 151.12 270.084 151.08 269.924 151C269.791 150.92 269.724 150.8 269.724 150.64C269.724 150.427 269.804 150.28 269.964 150.2C270.151 150.093 270.351 150.013 270.564 149.96C271.178 149.8 271.631 149.627 271.924 149.44C272.218 149.253 272.364 148.92 272.364 148.44V139.8C272.364 139 272.231 138.36 271.964 137.88C271.698 137.373 271.231 137.067 270.564 136.96C270.431 136.933 270.324 136.88 270.244 136.8C270.191 136.693 270.164 136.547 270.164 136.36C270.164 136.04 270.284 135.867 270.524 135.84C271.698 135.573 272.698 135.227 273.524 134.8C274.378 134.347 275.018 133.987 275.444 133.72C275.738 133.533 275.951 133.44 276.084 133.44C276.298 133.44 276.404 133.547 276.404 133.76C276.404 134.053 276.364 134.52 276.284 135.16C276.231 135.8 276.164 136.493 276.084 137.24C276.031 137.987 276.004 138.68 276.004 139.32V148.44C276.004 148.867 276.151 149.187 276.444 149.4C276.738 149.613 277.191 149.8 277.804 149.96C278.018 150.013 278.204 150.093 278.364 150.2C278.551 150.28 278.644 150.427 278.644 150.64C278.644 150.96 278.404 151.12 277.924 151.12C277.418 151.12 276.964 151.093 276.564 151.04C276.164 151.013 275.778 150.987 275.404 150.96C275.058 150.933 274.644 150.92 274.164 150.92C273.711 150.92 273.298 150.933 272.924 150.96C272.551 150.987 272.178 151.013 271.804 151.04C271.458 151.093 271.018 151.12 270.484 151.12ZM274.084 130.68C273.418 130.68 272.844 130.453 272.364 130C271.911 129.52 271.684 128.947 271.684 128.28C271.684 127.587 271.911 127.013 272.364 126.56C272.844 126.08 273.418 125.84 274.084 125.84C274.778 125.84 275.364 126.08 275.844 126.56C276.324 127.013 276.564 127.587 276.564 128.28C276.564 128.947 276.324 129.52 275.844 130C275.364 130.453 274.778 130.68 274.084 130.68Z" fill="#E92300"/>
<path d="M291.312 151.56C289.846 151.56 288.712 151.147 287.912 150.32C287.139 149.493 286.752 148.28 286.752 146.68V137.4C286.752 137.187 286.659 137.04 286.472 136.96C286.312 136.853 285.979 136.8 285.472 136.8H285.152C284.992 136.8 284.859 136.693 284.752 136.48C284.646 136.24 284.592 136.013 284.592 135.8C284.592 135.747 284.619 135.68 284.672 135.6C284.752 135.493 284.819 135.427 284.872 135.4C285.432 135.053 285.979 134.68 286.512 134.28C287.072 133.853 287.579 133.427 288.032 133C288.512 132.573 288.912 132.2 289.232 131.88C289.392 131.747 289.526 131.627 289.632 131.52C289.739 131.413 289.872 131.36 290.032 131.36C290.192 131.36 290.326 131.4 290.432 131.48C290.566 131.56 290.619 131.72 290.592 131.96L290.352 133.92C290.326 134.24 290.392 134.453 290.552 134.56C290.739 134.667 290.992 134.72 291.312 134.72H295.952C296.032 134.72 296.112 134.813 296.192 135C296.272 135.187 296.312 135.373 296.312 135.56C296.312 135.853 296.272 136.133 296.192 136.4C296.112 136.667 296.019 136.8 295.912 136.8H292.032C291.366 136.8 290.926 136.867 290.712 137C290.526 137.133 290.432 137.44 290.432 137.92V145.68C290.432 146.8 290.659 147.667 291.112 148.28C291.566 148.867 292.206 149.16 293.032 149.16C293.806 149.16 294.392 149.093 294.792 148.96C295.192 148.827 295.552 148.667 295.872 148.48C295.952 148.427 296.019 148.4 296.072 148.4C296.206 148.4 296.286 148.467 296.312 148.6C296.366 148.733 296.392 148.88 296.392 149.04C296.392 149.2 296.152 149.48 295.672 149.88C295.192 150.28 294.566 150.653 293.792 151C293.019 151.373 292.192 151.56 291.312 151.56Z" fill="#E92300"/>
<path d="M303.591 162.36C303.004 162.36 302.457 162.187 301.951 161.84C301.444 161.52 301.191 161.053 301.191 160.44C301.191 159.933 301.311 159.48 301.551 159.08C301.791 158.68 302.151 158.48 302.631 158.48C302.977 158.48 303.311 158.52 303.631 158.6C303.977 158.707 304.284 158.76 304.551 158.76C304.817 158.733 305.017 158.667 305.151 158.56C305.284 158.48 305.417 158.32 305.551 158.08C305.817 157.653 306.097 157.147 306.391 156.56C306.711 156 307.044 155.347 307.391 154.6C307.737 153.853 308.097 153.013 308.471 152.08C308.631 151.68 308.711 151.253 308.711 150.8C308.711 150.533 308.684 150.28 308.631 150.04C308.577 149.8 308.497 149.56 308.391 149.32L303.671 137.8C303.457 137.293 303.204 136.853 302.911 136.48C302.617 136.107 302.244 135.853 301.791 135.72C301.577 135.613 301.377 135.507 301.191 135.4C301.031 135.293 300.951 135.133 300.951 134.92C300.951 134.76 301.057 134.667 301.271 134.64C301.484 134.587 301.657 134.56 301.791 134.56C302.377 134.56 302.831 134.573 303.151 134.6C303.471 134.627 303.764 134.653 304.031 134.68C304.297 134.707 304.644 134.72 305.071 134.72C305.577 134.72 305.977 134.707 306.271 134.68C306.564 134.653 306.871 134.627 307.191 134.6C307.537 134.573 307.991 134.56 308.551 134.56C308.737 134.56 308.924 134.6 309.111 134.68C309.297 134.733 309.391 134.84 309.391 135C309.391 135.213 309.271 135.4 309.031 135.56C308.791 135.693 308.564 135.8 308.351 135.88C308.057 135.96 307.831 136.107 307.671 136.32C307.537 136.507 307.471 136.813 307.471 137.24C307.471 137.427 307.511 137.64 307.591 137.88C307.671 138.12 307.764 138.36 307.871 138.6L310.831 145.92C310.884 146.053 310.951 146.12 311.031 146.12C311.084 146.12 311.137 146.053 311.191 145.92L313.711 139C313.791 138.813 313.857 138.573 313.911 138.28C313.964 137.96 313.991 137.693 313.991 137.48C313.991 137 313.897 136.653 313.711 136.44C313.524 136.2 313.311 136.027 313.071 135.92C312.857 135.813 312.617 135.693 312.351 135.56C312.111 135.4 311.991 135.213 311.991 135C311.991 134.84 312.084 134.733 312.271 134.68C312.484 134.6 312.671 134.56 312.831 134.56C313.311 134.56 313.751 134.587 314.151 134.64C314.551 134.693 315.057 134.72 315.671 134.72C316.097 134.72 316.431 134.707 316.671 134.68C316.911 134.653 317.137 134.627 317.351 134.6C317.564 134.573 317.844 134.56 318.191 134.56C318.324 134.56 318.497 134.587 318.711 134.64C318.924 134.667 319.031 134.76 319.031 134.92C319.031 135.133 318.937 135.293 318.751 135.4C318.591 135.507 318.404 135.613 318.191 135.72C317.764 135.853 317.324 136.16 316.871 136.64C316.444 137.12 316.097 137.68 315.831 138.32L310.191 151.76C310.111 152 309.937 152.427 309.671 153.04C309.431 153.653 309.137 154.373 308.791 155.2C308.444 156.027 308.071 156.893 307.671 157.8C307.297 158.733 306.924 159.627 306.551 160.48C306.284 161.093 305.884 161.56 305.351 161.88C304.844 162.2 304.257 162.36 303.591 162.36Z" fill="#E92300"/>
<path d="M324.743 151.8C324.05 151.8 323.45 151.547 322.943 151.04C322.437 150.533 322.183 149.933 322.183 149.24C322.183 148.493 322.437 147.88 322.943 147.4C323.45 146.893 324.05 146.64 324.743 146.64C325.463 146.64 326.063 146.893 326.543 147.4C327.05 147.88 327.303 148.493 327.303 149.24C327.303 149.933 327.05 150.533 326.543 151.04C326.063 151.547 325.463 151.8 324.743 151.8Z" fill="#E92300"/>
<path d="M338.196 151.8C337.503 151.8 336.903 151.547 336.396 151.04C335.89 150.533 335.636 149.933 335.636 149.24C335.636 148.493 335.89 147.88 336.396 147.4C336.903 146.893 337.503 146.64 338.196 146.64C338.916 146.64 339.516 146.893 339.996 147.4C340.503 147.88 340.756 148.493 340.756 149.24C340.756 149.933 340.503 150.533 339.996 151.04C339.516 151.547 338.916 151.8 338.196 151.8Z" fill="#E92300"/>
<path d="M351.649 151.8C350.956 151.8 350.356 151.547 349.849 151.04C349.343 150.533 349.089 149.933 349.089 149.24C349.089 148.493 349.343 147.88 349.849 147.4C350.356 146.893 350.956 146.64 351.649 146.64C352.369 146.64 352.969 146.893 353.449 147.4C353.956 147.88 354.209 148.493 354.209 149.24C354.209 149.933 353.956 150.533 353.449 151.04C352.969 151.547 352.369 151.8 351.649 151.8Z" fill="#E92300"/>
<path d="M45.0582 150.422C42.5157 151.475 39.9394 152.196 37.3294 152.584C34.7193 152.973 32.1101 152.945 29.5018 152.501C29.0246 152.353 28.5351 152.174 28.0334 151.967C27.5317 151.759 27.1064 151.485 26.7576 151.144C25.505 149.793 24.2829 148.013 23.0912 145.805C21.9586 143.572 20.9321 141.261 20.0115 138.872C19.8401 138.458 19.895 138.089 20.1763 137.764C20.4576 137.44 20.8348 137.18 21.3078 136.984C21.8991 136.739 22.3202 136.668 22.571 136.772C22.8565 136.793 23.2032 136.961 23.6112 137.277C26.7489 141.173 30.1523 143.954 33.8215 145.621C37.5497 147.263 41.1286 147.374 44.558 145.953C46.4501 145.169 47.816 144.119 48.6557 142.801C49.53 141.4 50.023 139.914 50.1346 138.344C50.2217 136.715 49.9836 135.22 49.4202 133.86C48.6365 131.968 47.5909 130.531 46.2834 129.548C45.0351 128.541 43.4513 127.812 41.5323 127.36C39.6132 126.908 37.2435 126.538 34.4232 126.252C31.352 125.861 28.345 125.375 25.4022 124.793C22.435 124.152 19.7469 123.014 17.338 121.379C14.9291 119.745 13.0266 117.242 11.6306 113.872C10.1856 110.383 9.82342 107 10.5441 103.723C11.324 100.421 12.9869 97.4119 15.5329 94.6948C18.0789 91.9777 21.3031 89.8109 25.2056 88.1944C27.4524 87.2637 29.679 86.6185 31.8853 86.2588C34.1507 85.8747 36.0023 85.6619 37.4399 85.6206C38.2719 85.6223 38.9092 85.7394 39.3518 85.9717C39.8535 86.1795 40.4063 86.6779 41.0102 87.4668C41.8202 88.5861 42.6812 89.9959 43.5934 91.6963C44.5646 93.3721 45.4911 95.2744 46.3728 97.403C46.6912 98.1717 46.3183 98.7764 45.2539 99.2173C44.7218 99.4377 44.1702 99.5276 43.5992 99.4871C43.0629 99.3629 42.6498 99.1183 42.3601 98.7534C39.8855 95.622 37.2929 93.544 34.5824 92.5193C31.8719 91.4945 29.0976 91.5699 26.2594 92.7455C24.4856 93.4803 23.1003 94.4005 22.1035 95.5061C21.1067 96.6117 20.528 97.8905 20.3675 99.3425C20.266 100.77 20.5827 102.371 21.3174 104.144C21.9052 105.564 22.9293 106.698 24.3897 107.548C25.8847 108.314 27.8059 108.938 30.1532 109.421C32.5005 109.903 35.1506 110.364 38.1035 110.804C42.0802 111.373 45.3942 112.183 48.0456 113.232C50.6969 114.281 52.8651 115.669 54.5501 117.396C56.2697 119.039 57.6806 121.19 58.7827 123.851C60.4482 127.872 60.945 131.58 60.2733 134.976C59.6607 138.347 58.0274 141.344 55.3733 143.967C52.7538 146.507 49.3154 148.659 45.0582 150.422Z" fill="#E92300"/>
<path d="M72.3386 137.979C71.156 138.469 70.3933 138.3 70.0504 137.472C69.732 136.703 70.1671 135.83 71.3556 134.853C72.1201 134.19 72.754 133.547 73.2575 132.922C73.7609 132.298 73.7728 131.324 73.2931 129.998L55.6591 87.4258C54.9978 85.8294 54.2153 84.5256 53.3116 83.5145C52.4078 82.5033 51.1556 82.1561 49.555 82.4727C48.8556 82.6239 48.3467 82.3152 48.0283 81.5465C47.7099 80.7778 47.8219 80.2119 48.3642 79.8487C49.6016 78.9898 50.9675 77.9391 52.4618 76.6967C53.9908 75.3706 55.4606 74.0691 56.8712 72.792C58.2574 71.4559 59.3328 70.4563 60.0972 69.7932C60.4968 69.4199 60.8444 69.172 61.14 69.0496C61.4948 68.9026 61.7803 68.9229 61.9965 69.1104C62.1882 69.2388 62.3453 69.4509 62.4678 69.7465C62.5902 70.0422 62.7148 70.5101 62.8415 71.1504C63.0028 71.707 63.2253 72.4115 63.509 73.2638C63.7683 74.0569 64.0888 74.9979 64.4705 76.0867L72.9569 96.5747C73.2018 97.1659 73.4518 97.6859 73.7069 98.1344C73.9619 98.5829 74.2445 98.8469 74.5545 98.9263C75.123 97.7903 75.8444 96.5216 76.7187 95.1204C77.5686 93.66 78.6448 92.2444 79.9473 90.8736C81.309 89.4783 82.995 88.3643 85.0054 87.5315C88.1392 86.2335 91.2357 86.267 94.2951 87.6322C97.3299 88.9383 99.6677 91.5721 101.309 95.5337L109.317 114.869C109.832 116.11 110.512 116.833 111.359 117.037C112.18 117.181 113.066 117.23 114.017 117.182C114.741 117.09 115.312 117.131 115.73 117.304C116.182 117.394 116.507 117.675 116.703 118.148C117.046 118.976 116.567 119.659 115.266 120.198C113.847 120.786 112.669 121.204 111.733 121.453C110.822 121.762 109.94 122.058 109.088 122.341C108.295 122.601 107.277 122.987 106.035 123.502C104.735 124.041 103.742 124.487 103.057 124.84C102.372 125.193 101.657 125.558 100.913 125.935C100.193 126.372 99.1237 126.884 97.7046 127.472C96.2264 128.084 95.3036 127.947 94.9363 127.06C94.7403 126.587 94.7708 126.159 95.0276 125.775C95.319 125.308 95.6767 124.918 96.1008 124.603C96.747 123.989 97.2973 123.311 97.7518 122.569C98.2063 121.826 98.1641 120.805 97.6253 119.504L90.388 102.031C89.8492 100.731 89.1055 99.6878 88.157 98.9031C87.184 98.0592 86.1316 97.5253 84.9997 97.3014C83.9025 96.9939 82.8513 97.0483 81.8461 97.4646C80.9592 97.832 80.0448 98.384 79.103 99.1205C78.1611 99.8569 77.3346 100.788 76.6233 101.914C76.2972 102.465 76.1435 103.013 76.162 103.56C76.2152 104.023 76.4255 104.698 76.7928 105.585L84.8384 125.008C85.3282 126.191 85.9667 126.896 86.754 127.124C87.5167 127.293 88.3436 127.366 89.2347 127.344C89.8404 127.301 90.3818 127.353 90.859 127.502C91.3118 127.592 91.6361 127.873 91.832 128.346C92.1994 129.233 91.8509 129.897 90.7866 130.338C89.6041 130.827 88.4561 131.234 87.3428 131.556C86.3132 131.913 85.3131 132.258 84.3425 132.591C83.4311 132.899 82.4432 133.274 81.3789 133.715C80.3737 134.131 79.3808 134.577 78.4001 135.053C77.4786 135.504 76.5274 135.967 75.5467 136.442C74.5905 136.977 73.5212 137.489 72.3386 137.979Z" fill="#E92300"/>
<path d="M122.325 117.274C121.852 117.47 121.401 117.553 120.973 117.522C120.52 117.433 120.208 117.181 120.037 116.767C119.841 116.294 119.871 115.866 120.128 115.482C120.361 115.04 120.765 114.595 121.342 114.148C122.471 113.195 123.145 112.397 123.363 111.752C123.64 111.083 123.595 110.305 123.228 109.419L114.778 89.0193C114.264 87.7776 113.67 86.8459 112.997 86.2242C112.358 85.5188 111.416 85.251 110.17 85.4207C109.826 85.4249 109.498 85.3873 109.188 85.3079C108.854 85.1694 108.576 84.834 108.356 84.3018C108.013 83.4741 108.16 82.8245 108.796 82.3532C110.492 81.0965 112.304 79.6184 114.233 77.9191C116.22 76.1952 117.853 74.6183 119.131 73.1884C119.329 72.8294 119.598 72.4755 119.938 72.1267C120.313 71.6942 120.59 71.4413 120.767 71.3678C121.299 71.1474 121.7 71.3624 121.969 72.0128C122.092 72.3084 122.319 72.9415 122.652 73.912C123.019 74.799 123.37 75.7277 123.702 76.6982C124.094 77.6443 124.395 78.4548 124.606 79.1297C124.826 79.6618 125.054 79.8789 125.291 79.781C125.664 78.1719 126.196 76.5312 126.889 74.8588C127.641 73.1619 128.567 71.6352 129.668 70.2787C130.768 68.9222 131.999 67.9624 133.359 67.399C135.428 66.5418 137.036 66.3261 138.182 66.7519C139.388 67.1532 140.247 67.9747 140.762 69.2164C141.129 70.1033 141.267 71.1891 141.176 72.4739C141.144 73.7341 140.902 74.9078 140.452 75.9948C140.002 77.0819 139.333 77.8091 138.446 78.1765C137.914 78.3969 137.303 78.5113 136.614 78.5197C135.9 78.469 135.187 78.4183 134.473 78.3675C133.784 78.376 133.094 78.3844 132.405 78.3928C131.751 78.3175 131.187 78.3779 130.714 78.5738C129.176 79.2106 128.079 80.3234 127.421 81.9122C126.763 83.501 127.131 85.9805 128.528 89.3508L134.516 103.808C135.006 104.99 135.728 105.73 136.682 106.028C137.671 106.241 139.092 106.242 140.943 106.029C141.667 105.937 142.238 105.978 142.656 106.151C143.109 106.24 143.433 106.522 143.629 106.995C143.972 107.823 143.641 108.445 142.636 108.861C140.862 109.596 138.992 110.266 137.027 110.873C135.085 111.538 133.346 112.189 131.809 112.826C130.804 113.242 129.781 113.701 128.741 114.201C127.761 114.676 126.721 115.176 125.622 115.7C124.607 116.26 123.508 116.784 122.325 117.274Z" fill="#E92300"/>
<path d="M186.673 92.4905C186.2 92.6864 185.841 92.4887 185.596 91.8975C185.302 91.1879 184.97 90.2174 184.598 88.9858C184.286 87.7298 183.995 86.7766 183.725 86.1261C183.627 85.8896 183.512 85.6949 183.379 85.542C183.306 85.3646 183.227 85.2586 183.144 85.224C182.355 87.8365 181.001 90.3371 179.081 92.7257C177.137 95.0552 174.775 96.7954 171.996 97.9466C170.163 98.7058 168.287 98.8594 166.368 98.4074C164.424 97.8962 162.617 96.8783 160.946 95.3536C159.335 93.8044 158.039 91.8472 157.06 89.4821L150.19 72.8966C149.626 71.5366 148.907 70.553 148.032 69.9456C147.216 69.3137 146.067 69.1316 144.585 69.3993C144.205 69.4871 143.819 69.474 143.425 69.36C143.066 69.1623 142.777 68.7974 142.556 68.2652C142.385 67.8513 142.368 67.4771 142.507 67.1426C142.621 66.749 142.873 66.4369 143.262 66.2064C145.697 65.0595 147.845 63.8923 149.709 62.7048C151.548 61.4582 153.392 60.1402 155.241 58.7508C155.512 58.5692 155.783 58.3876 156.054 58.206C156.36 57.9408 156.661 57.747 156.956 57.6245C157.784 57.2817 158.34 57.5364 158.624 58.3886C158.951 59.8466 159.251 61.073 159.524 62.0681C159.773 63.004 160.18 64.1519 160.743 65.5119L167.797 82.5408C168.384 83.9599 169.135 85.1036 170.049 85.972C170.963 86.8404 171.956 87.3988 173.029 87.6472C174.102 87.8956 175.153 87.8411 176.183 87.4839C177.129 87.092 177.996 86.5942 178.785 85.9903C179.633 85.3619 180.3 84.4624 180.785 83.2917C181.017 82.8491 181.156 82.0986 181.203 81.0402C181.225 79.9227 180.918 78.5953 180.281 77.058L174.366 62.7785C173.925 61.7142 173.363 60.9426 172.68 60.4636C171.972 59.9255 171.178 59.5964 170.297 59.4765C169.416 59.3565 168.49 59.4628 167.519 59.7956C166.844 60.0058 166.251 60.0785 165.739 60.0134C165.262 59.8647 164.876 59.4356 164.582 58.726C164.338 58.1348 164.361 57.6056 164.652 57.1385C164.944 56.6714 165.385 56.3154 165.976 56.0705C168.918 54.644 171.252 53.5043 172.977 52.6513C174.677 51.7391 176.052 50.9617 177.102 50.319C178.152 49.6762 179.19 49.004 180.215 48.3021C180.368 48.1695 180.551 48.0246 180.763 47.8676C180.975 47.7105 181.14 47.6074 181.258 47.5584C182.145 47.1911 182.735 47.3621 183.029 48.0717C183.103 48.2491 183.159 48.4683 183.198 48.7293C183.237 48.9903 183.246 49.2635 183.226 49.549C183.265 49.81 183.396 50.3789 183.621 51.2557C183.88 52.0488 184.134 52.9134 184.383 53.8493C184.692 54.7607 184.956 55.4825 185.176 56.0146L193.7 76.5913C194.263 77.9512 194.79 78.8065 195.282 79.1571C195.808 79.424 196.278 79.4718 196.692 79.3003C196.988 79.1779 197.443 79.0238 198.059 78.838C198.65 78.593 199.035 78.4338 199.212 78.3604C199.744 78.1399 200.219 78.1163 200.638 78.2895C201.056 78.4627 201.363 78.7858 201.559 79.2588C201.779 79.791 201.845 80.2834 201.755 80.7362C201.7 81.1053 201.389 81.4419 200.822 81.7459C198.082 83.158 195.718 84.726 193.731 86.4498C191.778 88.0901 190.108 89.5783 188.722 90.9144C188.416 91.1797 188.081 91.4571 187.716 91.7468C187.375 92.0956 187.028 92.3435 186.673 92.4905Z" fill="#E92300"/>
<path d="M233.839 100.802C228.044 103.202 223.141 104.159 219.13 103.673C215.202 103.222 212.59 101.429 211.291 98.2953C210.557 96.5215 210.164 94.9871 210.112 93.6922C210.085 92.4565 210.59 91.0003 211.628 89.3237C212.408 88.0305 213.159 86.7496 213.881 85.481C214.602 84.2123 215.237 83.1528 215.785 82.3022L220.756 82.0098C219.364 83.8334 218.393 85.5864 217.843 87.269C217.352 88.927 217.449 90.5839 218.135 92.2394C219.139 94.6637 220.977 96.2577 223.649 97.0215C226.379 97.7607 229.282 97.4936 232.357 96.22C236.437 94.5301 239.003 92.5317 240.057 90.225C240.68 88.7198 241.035 87.1526 241.123 85.5232C241.234 83.953 241.008 82.4879 240.445 81.1279C240.053 80.1819 239.409 79.5479 238.514 79.2261C237.619 78.9042 236.228 78.8914 234.342 79.1878C232.515 79.4597 230.032 80.0723 226.894 81.0257C220.5 82.9816 215.647 83.641 212.335 83.0039C209.023 82.3668 206.779 80.6292 205.604 77.7911C205.383 77.2589 205.311 76.6655 205.386 76.0109C205.496 75.2727 205.889 74.3824 206.566 73.3401C207.218 72.2387 207.818 71.2627 208.366 70.4122C208.89 69.5025 209.32 68.701 209.656 68.0075C209.968 67.2549 210.127 66.635 210.133 66.1476L215.192 65.8185C214.181 66.7222 213.438 67.688 212.963 68.716C212.548 69.7194 212.45 70.4872 212.67 71.0194C212.94 71.6698 213.545 72.0427 214.485 72.1382C215.425 72.2337 216.873 72.0497 218.828 71.5861C220.759 71.0634 223.37 70.259 226.661 69.1729C233.267 67.06 238.325 66.1426 241.835 66.4207C245.32 66.6397 247.638 68.1387 248.789 70.9177C249.793 73.342 250.105 76.0183 249.725 78.9467C249.369 81.9343 248.472 84.869 247.033 87.751C245.619 90.692 243.755 93.2998 241.441 95.5744C239.211 97.8836 236.677 99.626 233.839 100.802ZM219.231 62.2749C221.124 61.4912 222.173 59.8441 222.38 57.3338C222.622 54.7398 222.033 51.7281 220.612 48.2987C219.706 46.1109 218.626 44.3413 217.374 42.9898C216.156 41.5546 214.89 40.5895 213.577 40.0944C212.239 39.5402 210.92 39.5325 209.619 40.0714C208.495 40.5367 207.657 41.4383 207.102 42.7763C206.548 44.1142 206.306 45.7038 206.376 47.5452C206.481 49.303 206.962 51.2166 207.819 53.2861C208.725 55.4738 209.841 57.3322 211.167 58.8611C212.493 60.39 213.879 61.4785 215.325 62.1264C216.747 62.7153 218.049 62.7647 219.231 62.2749ZM219.872 66.5815C217.271 67.6591 214.441 68.1037 211.385 67.9151C208.362 67.6429 205.558 66.7263 202.972 65.1652C200.445 63.5796 198.606 61.3973 197.454 58.6183C196.23 55.6618 195.968 52.6878 196.668 49.696C197.428 46.6797 198.91 43.9874 201.116 41.6191C203.356 39.1672 206.014 37.3044 209.088 36.0309C210.921 35.2716 212.722 34.7683 214.489 34.5209C216.317 34.2491 218.267 33.8568 220.341 33.3442C221.562 33.1154 222.759 32.8275 223.931 32.4804C225.104 32.1333 226.37 31.6781 227.73 31.1148C228.617 30.7474 229.491 30.3505 230.354 29.924C231.192 29.4383 231.906 29.073 232.498 28.8281C233.444 28.4363 234.186 28.8907 234.725 30.1916C235.19 31.315 235.247 32.5385 234.895 33.8621C234.711 34.4229 234.413 34.7891 233.999 34.9605L231.604 35.9524C230.067 36.5892 229.13 37.2543 228.794 37.9478C228.724 38.115 228.697 38.2996 228.711 38.5015C228.701 38.6442 228.777 38.9939 228.938 39.5506C229.134 40.0236 229.514 40.9401 230.077 42.3C231.351 45.3747 231.728 48.5435 231.209 51.8064C230.69 55.0693 229.461 58.0378 227.52 60.7119C225.555 63.3269 223.006 65.2834 219.872 66.5815Z" fill="#E92300"/>
<path fill-rule="evenodd" clip-rule="evenodd" d="M29.2681 153.476L29.2043 153.456C28.6958 153.298 28.1779 153.109 27.6506 152.89C27.0448 152.639 26.5088 152.299 26.0591 151.86L26.0411 151.842L26.024 151.824C24.6978 150.393 23.4295 148.537 22.2111 146.28L22.2051 146.269L22.1993 146.257C21.0527 143.997 20.0137 141.658 19.0823 139.241C18.9447 138.904 18.8767 138.529 18.935 138.137C18.9944 137.737 19.1747 137.393 19.4208 137.109C19.8216 136.647 20.336 136.304 20.925 136.06C21.2596 135.921 21.5896 135.813 21.9018 135.761C22.1564 135.718 22.4717 135.7 22.7892 135.791C23.3179 135.87 23.8066 136.163 24.2234 136.486L24.3163 136.558L24.3899 136.649C27.4513 140.45 30.7349 143.119 34.2297 144.708C37.7332 146.25 41.0255 146.334 44.1753 145.029C45.9339 144.301 47.1095 143.364 47.8096 142.268C48.5988 141.002 49.0358 139.677 49.1364 138.282C49.2151 136.789 48.9955 135.448 48.4963 134.243C47.7639 132.475 46.8151 131.198 45.6826 130.348L45.6689 130.337L45.6555 130.326C44.5473 129.433 43.109 128.758 41.3029 128.333C39.4399 127.894 37.1162 127.531 34.3221 127.247L34.3095 127.245L34.297 127.244C31.2038 126.851 28.1741 126.361 25.2081 125.774L25.1995 125.772L25.1909 125.77C22.1038 125.103 19.2959 123.916 16.7764 122.207C14.1693 120.438 12.1585 117.76 10.7066 114.255C9.19351 110.602 8.79733 107.01 9.56739 103.508L9.56905 103.501L9.57083 103.493C10.3946 100.005 12.1496 96.8428 14.8031 94.011C17.4586 91.1769 20.8066 88.934 24.8228 87.2705C27.1336 86.3133 29.4334 85.6456 31.7211 85.2723C34.0074 84.8847 35.9088 84.6641 37.4111 84.621L37.4265 84.6205L37.4419 84.6205C38.3225 84.6224 39.1325 84.7399 39.7765 85.0656C40.5098 85.3835 41.1808 86.0445 41.8042 86.859L41.8124 86.8696L41.8202 86.8805C42.6621 88.0438 43.5439 89.4898 44.4668 91.2091C45.4608 92.926 46.4035 94.8642 47.2966 97.0203C47.5547 97.6434 47.5684 98.333 47.183 98.9579C46.8366 99.5196 46.2523 99.8861 45.6365 100.141C44.9619 100.421 44.2551 100.536 43.5282 100.484L43.45 100.479L43.3736 100.461C42.6585 100.296 42.0317 99.948 41.5769 99.3751L41.5755 99.3734C39.1725 96.3328 36.7172 94.3954 34.2287 93.4546C31.7714 92.5256 29.2607 92.5847 26.642 93.6694C24.9672 94.3631 23.7188 95.2077 22.8461 96.1756C21.9913 97.1238 21.5035 98.2015 21.3635 99.4328C21.2804 100.658 21.5502 102.093 22.2412 103.762C22.7339 104.951 23.5912 105.921 24.8697 106.67C26.2552 107.376 28.0746 107.973 30.3544 108.441C32.6793 108.919 35.3099 109.377 38.2478 109.814C42.272 110.39 45.667 111.215 48.4134 112.302C51.166 113.391 53.4558 114.846 55.2535 116.685C57.0866 118.44 58.5648 120.712 59.7065 123.468C61.4269 127.622 61.9723 131.53 61.2557 135.162C60.602 138.75 58.8607 141.926 56.0762 144.678L56.0693 144.685C53.3389 147.332 49.7851 149.546 45.4408 151.346C42.826 152.429 40.1708 153.172 37.4765 153.573C34.7617 153.977 32.0462 153.948 29.3341 153.487L29.2681 153.476ZM60.2732 134.975C60.945 131.58 60.4481 127.872 58.7827 123.851C57.6805 121.19 56.2697 119.038 54.55 117.395C52.865 115.669 50.6968 114.281 48.0455 113.232C45.3941 112.182 42.0801 111.373 38.1035 110.804C35.1505 110.364 32.5004 109.903 30.1531 109.421C27.8058 108.938 25.8846 108.314 24.3896 107.548C22.9292 106.698 21.9051 105.563 21.3173 104.144C20.5826 102.371 20.2659 100.77 20.3674 99.3424C20.528 97.8904 21.1066 96.6116 22.1034 95.506C23.1002 94.4004 24.4855 93.4802 26.2594 92.7455C29.0975 91.5699 31.8718 91.4944 34.5823 92.5192C37.2928 93.5439 39.8854 95.622 42.3601 98.7533C42.6498 99.1182 43.0628 99.3628 43.5991 99.487C44.1701 99.5276 44.7217 99.4377 45.2539 99.2172C46.3182 98.7764 46.6911 98.1716 46.3727 97.4029C45.491 95.2743 44.5645 93.3721 43.5933 91.6962C42.6811 89.9958 41.8201 88.586 41.0101 87.4668C40.4062 86.6778 39.8534 86.1794 39.3517 85.9716C38.9091 85.7393 38.2718 85.6223 37.4398 85.6205C36.0022 85.6618 34.1507 85.8746 31.8852 86.2588C29.679 86.6185 27.4524 87.2637 25.2055 88.1943C21.303 89.8108 18.0788 91.9776 15.5328 94.6947C12.9868 97.4119 11.3239 100.421 10.544 103.723C9.82335 107 10.1855 110.383 11.6305 113.872C13.0265 117.242 14.929 119.745 17.3379 121.379C19.7468 123.014 22.4349 124.152 25.4022 124.793C28.3449 125.375 31.3519 125.861 34.4231 126.252C37.2435 126.538 39.6131 126.908 41.5322 127.36C43.4513 127.812 45.035 128.541 46.2833 129.548C47.5908 130.53 48.6364 131.968 49.4202 133.86C49.9835 135.22 50.2216 136.714 50.1345 138.344C50.0229 139.914 49.5299 141.4 48.6556 142.801C47.8159 144.119 46.45 145.169 44.5579 145.953C41.1285 147.374 37.5496 147.263 33.8214 145.62C30.1522 143.954 26.7488 141.172 23.6111 137.277C23.2032 136.961 22.8564 136.793 22.5709 136.772C22.3201 136.668 21.899 136.739 21.3077 136.984C20.8347 137.18 20.4575 137.44 20.1762 137.764C19.8949 138.089 19.84 138.458 20.0115 138.872C20.932 141.261 21.9586 143.572 23.0911 145.805C24.2828 148.013 25.5049 149.793 26.7575 151.144C27.1063 151.485 27.5316 151.759 28.0333 151.967C28.535 152.174 29.0245 152.353 29.5017 152.501C32.11 152.945 34.7192 152.973 37.3293 152.584C39.9393 152.196 42.5156 151.475 45.0581 150.422C49.3154 148.658 52.7537 146.507 55.3732 143.967C58.0273 141.344 59.6607 138.347 60.2732 134.975ZM64.4578 72.9478L64.4595 72.953C64.7138 73.7311 65.0288 74.6563 65.405 75.7296L73.8807 96.1919C74.033 96.5596 74.1852 96.8929 74.3368 97.1928C74.783 96.3816 75.2918 95.5184 75.8622 94.6039C76.7542 93.0737 77.8764 91.6011 79.2223 90.1847L79.2315 90.175C80.6982 88.6721 82.5017 87.4861 84.6226 86.6076C88.0044 85.2068 91.3846 85.2403 94.6961 86.7161C98.0323 88.1539 100.524 91.0255 102.232 95.1509L110.241 114.486C110.692 115.573 111.176 115.953 111.567 116.058C112.286 116.181 113.073 116.226 113.93 116.185C114.681 116.094 115.403 116.114 116.022 116.345C116.79 116.529 117.331 117.053 117.626 117.765C117.917 118.467 117.872 119.21 117.419 119.855C117.019 120.426 116.367 120.824 115.648 121.122C114.225 121.712 113.013 122.145 112.023 122.411C111.121 122.716 110.248 123.009 109.404 123.29L109.398 123.292C108.64 123.54 107.648 123.916 106.418 124.426C105.126 124.961 104.163 125.394 103.515 125.728C102.838 126.077 102.132 126.438 101.398 126.81C100.615 127.282 99.5016 127.81 98.0872 128.396C97.2859 128.728 96.4838 128.926 95.7566 128.817C94.9356 128.695 94.3256 128.199 94.0123 127.443C93.7071 126.706 93.7306 125.925 94.1868 125.234C94.5285 124.689 94.9505 124.222 95.4526 123.84C96.0194 123.295 96.5006 122.697 96.8988 122.047C97.1041 121.711 97.1941 121.076 96.7013 119.886L89.464 102.414C88.9786 101.242 88.3253 100.34 87.5195 99.6735L87.5105 99.6661L87.5017 99.6585C86.6446 98.9151 85.7475 98.4687 84.8056 98.2823L84.7673 98.2748L84.7298 98.2642C83.8373 98.0141 83.0166 98.0621 82.2288 98.3885C81.4429 98.714 80.6062 99.2143 79.7189 99.9081C78.8807 100.564 78.1317 101.401 77.4767 102.435C77.2462 102.828 77.1578 103.174 77.1605 103.486C77.2055 103.809 77.3703 104.366 77.7166 105.202L85.7622 124.625C86.1911 125.661 86.6471 126.04 87.006 126.156C87.6639 126.298 88.3897 126.363 89.1878 126.344C89.865 126.299 90.5102 126.354 91.1086 126.533C91.8998 126.708 92.4554 127.238 92.7558 127.963C93.0187 128.598 93.0807 129.309 92.7316 129.974C92.4036 130.599 91.8069 130.997 91.1692 131.261C89.9649 131.76 88.7905 132.177 87.6463 132.509C86.6241 132.864 85.6309 133.207 84.6667 133.537L84.6628 133.538C83.776 133.838 82.8092 134.205 81.7615 134.639C80.7751 135.047 79.8006 135.485 78.8381 135.952C77.924 136.399 76.9809 136.858 76.0089 137.329C75.0202 137.881 73.9235 138.405 72.7212 138.903C72.0505 139.181 71.3362 139.345 70.6632 139.196C69.9128 139.03 69.4016 138.519 69.1265 137.855C68.8371 137.156 68.9207 136.441 69.2428 135.795C69.5472 135.184 70.0677 134.619 70.7098 134.09C71.4362 133.459 72.0229 132.86 72.4791 132.295C72.6352 132.101 72.8021 131.591 72.3603 130.359L54.7351 87.8085C54.1057 86.2888 53.3773 85.0886 52.5659 84.1808C51.9501 83.4919 51.0887 83.1904 49.7562 83.4522C49.2131 83.5676 48.6428 83.5206 48.13 83.2094C47.634 82.9085 47.3134 82.4338 47.1043 81.9291C46.9014 81.4392 46.7847 80.8961 46.8924 80.3514C47.0061 79.7765 47.3439 79.3308 47.7999 79.023C49.0042 78.1867 50.342 77.1583 51.8143 75.9344C53.3313 74.6187 54.7893 73.3276 56.1885 72.0611C57.5648 70.7346 58.6468 69.7282 59.4282 69.0496C59.8581 68.6497 60.3041 68.3133 60.7572 68.1256C61.3073 67.8978 62.0118 67.8369 62.6031 68.3143C62.9823 68.5861 63.2289 68.971 63.3916 69.3638C63.55 69.7463 63.687 70.2791 63.8137 70.9127C63.9691 71.4458 64.1832 72.1232 64.4578 72.9478ZM62.8414 71.1503C62.7147 70.51 62.5902 70.0421 62.4677 69.7464C62.3452 69.4508 62.1882 69.2388 61.9964 69.1104C61.7802 68.9228 61.4947 68.9026 61.1399 69.0495C60.8443 69.172 60.4967 69.4199 60.0971 69.7932C59.3327 70.4562 58.2574 71.4558 56.8712 72.792C55.4605 74.069 53.9907 75.3706 52.4618 76.6966C50.9675 77.939 49.6016 78.9897 48.3641 79.8487C47.8218 80.2118 47.7098 80.7777 48.0282 81.5464C48.3466 82.3151 48.8555 82.6238 49.5549 82.4727C51.1556 82.156 52.4078 82.5033 53.3115 83.5144C54.2152 84.5255 54.9977 85.8293 55.659 87.4258L73.2931 129.998C73.7728 131.323 73.7609 132.298 73.2574 132.922C72.7539 133.547 72.12 134.19 71.3555 134.853C70.167 135.83 69.732 136.703 70.0503 137.472C70.3932 138.3 71.156 138.469 72.3385 137.979C73.5211 137.489 74.5905 136.977 75.5467 136.442C76.5274 135.967 77.4785 135.504 78.4 135.053C79.3807 134.577 80.3737 134.131 81.3788 133.715C82.4432 133.274 83.431 132.899 84.3424 132.591C85.313 132.258 86.3131 131.913 87.3428 131.556C88.4561 131.234 89.604 130.827 90.7866 130.338C91.8509 129.897 92.1993 129.233 91.8319 128.346C91.636 127.873 91.3117 127.592 90.8589 127.502C90.3817 127.353 89.8403 127.3 89.2347 127.343C88.3435 127.366 87.5166 127.293 86.7539 127.124C85.9667 126.896 85.3281 126.191 84.8383 125.008L76.7928 105.584C76.4254 104.698 76.2151 104.023 76.1619 103.56C76.1434 103.013 76.2971 102.465 76.6232 101.914C77.3345 100.788 78.1611 99.8569 79.1029 99.1204C80.0448 98.3839 80.9591 97.832 81.8461 97.4646C82.8512 97.0482 83.9024 96.9938 84.9996 97.3013C86.1315 97.5252 87.1839 98.0591 88.1569 98.903C89.1054 99.6878 89.8491 100.731 90.3879 102.031L97.6252 119.504C98.164 120.805 98.2062 121.826 97.7517 122.569C97.2973 123.311 96.7469 123.989 96.1007 124.603C95.6767 124.918 95.3189 125.308 95.0275 125.775C94.7707 126.159 94.7402 126.587 94.9362 127.06C95.3036 127.947 96.2264 128.084 97.7046 127.472C99.1236 126.884 100.193 126.372 100.913 125.935C101.657 125.558 102.371 125.193 103.057 124.839C103.742 124.486 104.735 124.041 106.035 123.502C107.277 122.987 108.294 122.601 109.088 122.341C109.94 122.058 110.822 121.762 111.733 121.453C112.669 121.204 113.847 120.786 115.266 120.198C116.566 119.659 117.045 118.976 116.703 118.148C116.507 117.675 116.182 117.394 115.73 117.304C115.311 117.131 114.74 117.09 114.017 117.182C113.066 117.23 112.18 117.181 111.358 117.037C110.512 116.833 109.832 116.11 109.317 114.869L101.309 95.5336C99.6677 91.572 97.3298 88.9382 94.295 87.6321C91.2357 86.267 88.1391 86.2334 85.0053 87.5315C82.995 88.3642 81.3089 89.4782 79.9472 90.8735C78.6447 92.2443 77.5685 93.6599 76.7187 95.1203C75.8443 96.5216 75.1229 97.7902 74.5544 98.9263C74.436 98.8959 74.3217 98.8387 74.2113 98.7546C74.0584 98.638 73.9132 98.4698 73.7757 98.2499C73.7525 98.2129 73.7296 98.1743 73.7068 98.1343C73.4517 97.6858 73.2018 97.1659 72.9568 96.5746L64.4704 76.0867C64.0887 74.9979 63.7682 74.0569 63.509 73.2637C63.2252 72.4114 63.0027 71.707 62.8414 71.1503ZM120.84 118.515L120.779 118.503C120.01 118.351 119.417 117.883 119.113 117.15C118.812 116.424 118.831 115.656 119.267 114.972C119.588 114.382 120.094 113.853 120.713 113.371C121.82 112.434 122.294 111.792 122.416 111.432L122.426 111.4L122.439 111.37C122.585 111.018 122.604 110.526 122.304 109.801L113.854 89.4019C113.371 88.2366 112.847 87.4475 112.318 86.9587L112.285 86.9284L112.255 86.8952C111.907 86.5103 111.34 86.2705 110.305 86.4115L110.244 86.4198L110.182 86.4206C109.757 86.4258 109.341 86.3794 108.94 86.2765L108.871 86.2589L108.805 86.2317C108.115 85.9456 107.696 85.322 107.432 84.6845C107.208 84.1446 107.101 83.5589 107.233 82.9736C107.369 82.3726 107.728 81.8997 108.2 81.5497C109.87 80.3129 111.66 78.8533 113.571 77.1687L113.577 77.1635C115.507 75.4903 117.083 73.9697 118.315 72.6009C118.55 72.1966 118.85 71.8134 119.202 71.4496C119.396 71.2269 119.58 71.032 119.751 70.8751C119.91 70.73 120.128 70.5498 120.384 70.4438C120.847 70.2521 121.407 70.1966 121.939 70.4824C122.428 70.7448 122.716 71.2024 122.893 71.63C123.028 71.9564 123.263 72.61 123.588 73.5583C123.956 74.4479 124.306 75.3766 124.638 76.3444C124.757 76.6331 124.869 76.9107 124.973 77.1772C125.258 76.2839 125.589 75.3835 125.965 74.476L125.97 74.4647L125.975 74.4536C126.76 72.681 127.731 71.0778 128.891 69.6486C130.077 68.187 131.436 67.113 132.976 66.4751C135.097 65.5965 137.003 65.2544 138.514 65.8084C140.004 66.3093 141.07 67.347 141.685 68.8336C142.127 69.8986 142.27 71.1421 142.175 72.5222C142.137 73.8878 141.874 75.1758 141.376 76.3774C140.848 77.6507 140.014 78.6094 138.829 79.1003C138.159 79.378 137.418 79.5099 136.626 79.5196L136.585 79.5201L134.443 79.3679L132.354 79.3934L132.291 79.3862C131.758 79.3249 131.374 79.3828 131.096 79.4977C129.813 80.0292 128.905 80.9419 128.344 82.2948C128.109 82.862 128.024 83.6786 128.193 84.8162C128.361 85.9476 128.772 87.3275 129.451 88.9681L135.44 103.425C135.841 104.394 136.36 104.866 136.939 105.06C137.767 105.229 139.041 105.241 140.823 105.036C141.585 104.94 142.32 104.957 142.948 105.191C143.717 105.376 144.258 105.9 144.553 106.612C144.805 107.221 144.863 107.908 144.521 108.552C144.201 109.153 143.624 109.534 143.018 109.785C141.218 110.53 139.324 111.21 137.336 111.824C135.416 112.482 133.702 113.124 132.191 113.75C131.205 114.158 130.2 114.609 129.177 115.101C128.202 115.573 127.169 116.07 126.079 116.591C125.035 117.164 123.911 117.699 122.708 118.198C122.119 118.442 121.512 118.563 120.902 118.52L120.84 118.515ZM125.622 115.7C126.721 115.176 127.761 114.676 128.741 114.2C129.781 113.701 130.804 113.242 131.809 112.826C133.346 112.189 135.085 111.538 137.026 110.873C138.992 110.266 140.862 109.596 142.636 108.861C143.641 108.445 143.972 107.823 143.629 106.995C143.433 106.522 143.109 106.24 142.656 106.151C142.238 105.978 141.667 105.937 140.943 106.029C139.092 106.242 137.671 106.241 136.682 106.028C135.728 105.73 135.006 104.99 134.516 103.808L128.527 89.3508C127.131 85.9804 126.762 83.5009 127.421 81.9121C128.079 80.3233 129.176 79.2106 130.714 78.5738C131.187 78.3778 131.751 78.3175 132.405 78.3927L134.473 78.3675L136.614 78.5197C137.303 78.5113 137.914 78.3968 138.446 78.1764C139.333 77.809 140.002 77.0818 140.452 75.9948C140.902 74.9077 141.144 73.734 141.176 72.4738C141.267 71.1891 141.129 70.1032 140.762 69.2163C140.247 67.9746 139.387 67.1531 138.182 66.7518C137.036 66.3261 135.428 66.5418 133.359 67.399C131.999 67.9623 130.768 68.9222 129.668 70.2786C128.567 71.6351 127.641 73.1618 126.889 74.8587C126.34 76.1847 125.891 77.4909 125.543 78.7771C125.543 78.7776 125.543 78.778 125.543 78.7784C125.537 78.8 125.531 78.8215 125.525 78.843C125.521 78.8569 125.518 78.8707 125.514 78.8845C125.434 79.1844 125.36 79.4832 125.291 79.7809C125.177 79.8281 125.065 79.8021 124.955 79.703C124.836 79.5964 124.72 79.4053 124.605 79.1296C124.573 79.0248 124.538 78.9167 124.501 78.8054C124.299 78.1997 124.033 77.4973 123.702 76.6982C123.369 75.7276 123.019 74.7989 122.652 73.912C122.319 72.9414 122.092 72.3083 121.969 72.0127C121.7 71.3623 121.299 71.1473 120.767 71.3677C120.59 71.4412 120.313 71.6942 119.938 72.1266C119.598 72.4754 119.329 72.8293 119.131 73.1883C117.853 74.6182 116.22 76.1951 114.233 77.919C112.304 79.6183 110.492 81.0964 108.796 82.3532C108.16 82.8245 108.013 83.474 108.356 84.3018C108.576 84.8339 108.854 85.1693 109.188 85.3078C109.498 85.3873 109.825 85.4249 110.17 85.4207C111.416 85.251 112.358 85.5188 112.997 86.2241C113.67 86.8458 114.264 87.7775 114.778 89.0192L123.228 109.418C123.595 110.305 123.64 111.083 123.363 111.752C123.145 112.397 122.471 113.195 121.342 114.148C120.765 114.595 120.36 115.04 120.128 115.482C119.871 115.866 119.841 116.294 120.037 116.767C120.208 117.181 120.52 117.433 120.973 117.522C121.401 117.553 121.852 117.47 122.325 117.274C123.508 116.784 124.607 116.26 125.622 115.7ZM183.633 89.251L183.627 89.2272C183.496 88.6981 183.37 88.2317 183.25 87.8256C182.417 89.7378 181.285 91.58 179.861 93.3521L179.855 93.3593L179.849 93.3664C177.802 95.8188 175.308 97.6568 172.378 98.8704C170.353 99.7093 168.263 99.8811 166.138 99.3807L166.126 99.3777L166.113 99.3745C163.995 98.8173 162.047 97.712 160.272 96.0921L160.263 96.0834L160.253 96.0744C158.529 94.4167 157.16 92.3389 156.136 89.8647L149.266 73.2792C148.749 72.0312 148.13 71.2308 147.462 70.767L147.44 70.7521L147.42 70.7362C146.917 70.347 146.105 70.1447 144.784 70.3795C144.238 70.5011 143.687 70.4768 143.147 70.3204L143.04 70.2895L142.943 70.2359C142.318 69.8918 141.905 69.3062 141.632 68.6478C141.392 68.0671 141.324 67.431 141.562 66.8125C141.761 66.1735 142.184 65.6823 142.753 65.3458L142.793 65.3218L142.836 65.3017C145.235 64.1716 147.341 63.0269 149.159 61.8691C150.98 60.6343 152.807 59.3283 154.64 57.9513L154.662 57.935L155.448 57.4081C155.801 57.1096 156.175 56.8657 156.574 56.7006C157.124 56.4727 157.782 56.361 158.411 56.6493C159.039 56.9372 159.384 57.5079 159.572 58.0727L159.588 58.1206L159.599 58.1699C159.924 59.6184 160.221 60.8283 160.488 61.8029L160.491 61.8108C160.724 62.6881 161.113 63.7914 161.667 65.1291L168.72 82.1581C169.266 83.4755 169.945 84.4937 170.738 85.247C171.541 86.0106 172.38 86.4703 173.255 86.6729C174.136 86.877 174.987 86.8348 175.828 86.5484C176.685 86.1906 177.467 85.7397 178.177 85.1961L178.183 85.1914L178.19 85.1867C178.865 84.6861 179.431 83.9459 179.861 82.9089L179.878 82.867L179.899 82.8269C180.021 82.5947 180.157 82.0408 180.203 81.0089C180.219 80.0815 179.962 78.9011 179.357 77.4406L173.442 63.1611C173.047 62.2081 172.585 61.6181 172.106 61.2824L172.09 61.2713L172.074 61.2596C171.504 60.8259 170.872 60.564 170.162 60.4672C169.457 60.3713 168.689 60.4515 167.844 60.7415L167.83 60.746L167.817 60.7502C167.053 60.9883 166.309 61.0939 165.613 61.0053L165.526 60.9942L165.442 60.968C164.557 60.6925 164.005 59.9442 163.658 59.1087C163.313 58.2745 163.312 57.3974 163.804 56.6091C164.217 55.9462 164.826 55.4701 165.565 55.1585C168.486 53.7423 170.803 52.6103 172.518 51.7622C174.204 50.858 175.556 50.0931 176.58 49.466C177.6 48.8417 178.608 48.1889 179.605 47.5078C179.771 47.366 179.96 47.2179 180.167 47.064C180.391 46.8983 180.638 46.7329 180.875 46.6345C181.418 46.4099 182.038 46.2751 182.644 46.4507C183.303 46.6414 183.722 47.1303 183.953 47.6889C184.067 47.964 184.14 48.268 184.187 48.582C184.231 48.8806 184.245 49.1852 184.231 49.4943C184.276 49.7366 184.388 50.2181 184.581 50.9761C184.841 51.7716 185.094 52.6331 185.341 53.5598C185.642 54.4471 185.894 55.135 186.1 55.6319L194.623 76.2085C194.893 76.8597 195.143 77.3611 195.369 77.7277C195.565 78.0457 195.717 78.2182 195.813 78.303C196.112 78.4383 196.25 78.4012 196.309 78.3764C196.644 78.2378 197.122 78.0769 197.722 77.895L198.829 77.4364C199.536 77.1436 200.295 77.0651 201.02 77.3656C201.716 77.6539 202.2 78.1931 202.482 78.8761C202.757 79.5385 202.87 80.2265 202.74 80.9091C202.604 81.7453 201.937 82.2828 201.295 82.6271L201.288 82.631L201.28 82.6348C198.599 84.0164 196.304 85.5416 194.386 87.2052L194.38 87.2104L194.374 87.2155C192.433 88.8455 190.781 90.3181 189.416 91.6344L189.397 91.6526L189.377 91.6698C189.072 91.9341 188.742 92.2082 188.385 92.4921C187.987 92.891 187.545 93.2115 187.056 93.4143C186.615 93.5967 186.077 93.6463 185.567 93.3651C185.104 93.1102 184.836 92.6744 184.672 92.2801C184.36 91.5263 184.016 90.5199 183.64 89.2746L183.633 89.251ZM187.716 91.7467C188.081 91.4571 188.416 91.1796 188.722 90.9144C190.108 89.5782 191.778 88.09 193.731 86.4498C195.718 84.7259 198.082 83.158 200.822 81.7458C201.389 81.4418 201.7 81.1052 201.755 80.7361C201.844 80.2834 201.779 79.7909 201.559 79.2587C201.363 78.7857 201.056 78.4626 200.638 78.2894C200.219 78.1163 199.744 78.1399 199.212 78.3603L198.059 78.8379C197.443 79.0237 196.988 79.1778 196.692 79.3003C196.278 79.4717 195.808 79.424 195.282 79.157C194.79 78.8064 194.263 77.9512 193.7 76.5912L185.176 56.0146C184.956 55.4824 184.692 54.7606 184.383 53.8492C184.134 52.9133 183.88 52.0488 183.621 51.2556C183.396 50.3789 183.264 49.81 183.226 49.549C183.246 49.2635 183.237 48.9902 183.198 48.7292C183.159 48.4682 183.103 48.249 183.029 48.0716C182.735 47.3621 182.145 47.191 181.258 47.5584C181.14 47.6074 180.975 47.7104 180.763 47.8675C180.551 48.0246 180.368 48.1694 180.215 48.302C179.19 49.0039 178.152 49.6762 177.102 50.3189C176.052 50.9616 174.677 51.7391 172.977 52.6512C171.252 53.5042 168.918 54.644 165.976 56.0704C165.385 56.3153 164.944 56.6713 164.652 57.1384C164.361 57.6055 164.337 58.1347 164.582 58.726C164.876 59.4355 165.262 59.8646 165.739 60.0133C166.251 60.0784 166.844 60.0058 167.519 59.7955C168.49 59.4628 169.416 59.3564 170.297 59.4764C171.177 59.5964 171.972 59.9254 172.68 60.4635C173.363 60.9425 173.925 61.7141 174.366 62.7785L180.281 77.0579C180.917 78.5953 181.225 79.9227 181.203 81.0402C181.156 82.0985 181.017 82.849 180.785 83.2916C180.3 84.4623 179.633 85.3618 178.785 85.9902C177.996 86.5941 177.129 87.092 176.183 87.4838C175.153 87.8411 174.102 87.8955 173.029 87.6471C171.956 87.3987 170.963 86.8403 170.049 85.9719C169.135 85.1036 168.384 83.9598 167.797 82.5407L160.743 65.5118C160.18 64.1519 159.773 63.0039 159.524 62.068C159.251 61.073 158.95 59.8465 158.624 58.3886C158.34 57.5363 157.784 57.2816 156.956 57.6245C156.661 57.7469 156.36 57.9408 156.054 58.206L155.241 58.7507C153.392 60.1401 151.548 61.4581 149.709 62.7047C147.845 63.8922 145.696 65.0594 143.262 66.2063C142.873 66.4369 142.621 66.749 142.507 67.1426C142.368 67.4771 142.385 67.8512 142.556 68.2651C142.777 68.7973 143.066 69.1622 143.425 69.3599C143.819 69.4739 144.205 69.4871 144.585 69.3992C146.067 69.1316 147.216 69.3137 148.032 69.9455C148.907 70.5529 149.626 71.5366 150.19 72.8965L157.06 89.482C158.039 91.8471 159.335 93.8043 160.946 95.3535C162.617 96.8783 164.424 97.8962 166.368 98.4073C168.287 98.8593 170.163 98.7057 171.996 97.9465C174.775 96.7954 177.137 95.0551 179.081 92.7256C180.712 90.6962 181.935 88.586 182.75 86.395C182.805 86.2469 182.858 86.0985 182.909 85.9498C182.937 85.8673 182.965 85.7848 182.993 85.7021C183.045 85.5431 183.095 85.3838 183.144 85.2239C183.227 85.2586 183.306 85.3646 183.379 85.542C183.512 85.6949 183.627 85.8896 183.725 86.1261C183.757 86.2031 183.789 86.2844 183.822 86.3699C184.064 87.0065 184.322 87.8785 184.598 88.9858C184.969 90.2173 185.302 91.1879 185.596 91.8974C185.841 92.4887 186.2 92.6863 186.673 92.4904C187.028 92.3435 187.375 92.0956 187.716 91.7467ZM212.868 68.9568C212.534 69.843 212.468 70.5306 212.67 71.0193C212.94 71.6697 213.544 72.0427 214.485 72.1382C215.425 72.2337 216.872 72.0496 218.828 71.586C220.759 71.0633 223.37 70.2589 226.661 69.1729C233.267 67.0599 238.325 66.1425 241.834 66.4206C245.32 66.6396 247.638 68.1386 248.789 70.9176C249.793 73.3419 250.105 76.0182 249.725 78.9467C249.369 81.9343 248.472 84.869 247.033 87.7509C245.619 90.692 243.755 93.2998 241.441 95.5743C239.211 97.8835 236.677 99.6259 233.839 100.801C228.044 103.202 223.141 104.159 219.13 103.673C215.202 103.222 212.589 101.429 211.291 98.2952C210.557 96.5214 210.164 94.987 210.112 93.6921C210.085 92.4564 210.59 91.0002 211.628 89.3236C212.408 88.0305 213.159 86.7496 213.881 85.4809C214.132 85.0397 214.372 84.6238 214.602 84.2332C214.809 83.8809 215.008 83.5492 215.198 83.2381C214.8 83.2411 214.416 83.2318 214.046 83.2103C213.436 83.1748 212.866 83.1059 212.335 83.0038C209.023 82.3668 206.779 80.6291 205.604 77.791C205.383 77.2588 205.311 76.6654 205.386 76.0108C205.496 75.2726 205.889 74.3823 206.566 73.3401C207.218 72.2387 207.818 71.2627 208.366 70.4121C208.737 69.7684 209.061 69.1789 209.337 68.6435C209.452 68.4222 209.558 68.2102 209.656 68.0074C209.699 67.9044 209.739 67.8039 209.776 67.7058C209.441 67.6485 209.109 67.5828 208.78 67.5088C206.735 67.0493 204.799 66.268 202.972 65.1651C200.445 63.5795 198.605 61.3972 197.454 58.6182C196.23 55.6618 195.968 52.6877 196.668 49.6959C197.428 46.6797 198.91 43.9874 201.116 41.6191C203.356 39.1671 206.013 37.3044 209.088 36.0308C210.921 35.2716 212.722 34.7682 214.489 34.5209C216.316 34.249 218.267 33.8568 220.341 33.3442C221.562 33.1153 222.759 32.8274 223.931 32.4803C225.104 32.1332 226.37 31.678 227.73 31.1147C228.617 30.7473 229.491 30.3504 230.354 29.9239C231.192 29.4383 231.906 29.073 232.498 28.8281C233.444 28.4362 234.186 28.8907 234.725 30.1915C235.19 31.3149 235.247 32.5384 234.895 33.862C234.711 34.4229 234.413 34.789 233.999 34.9604L231.604 35.9524C230.067 36.5891 229.13 37.2543 228.794 37.9477C228.724 38.115 228.697 38.2995 228.711 38.5014C228.701 38.6441 228.777 38.9938 228.938 39.5505L230.077 42.3C231.35 45.3746 231.728 48.5434 231.209 51.8063C230.69 55.0693 229.461 58.0378 227.52 60.7119C225.555 63.3268 223.006 65.2834 219.872 66.5814C218.22 67.2658 216.476 67.6949 214.64 67.8686C214.223 67.908 213.801 67.9343 213.375 67.9474C213.221 68.1996 213.083 68.4558 212.963 68.7159C212.929 68.7978 212.897 68.878 212.868 68.9568ZM213.879 69.1172C213.493 70.0565 213.535 70.4929 213.594 70.6366C213.675 70.8315 213.867 71.0703 214.586 71.1433C215.346 71.2205 216.649 71.0739 218.582 70.6167C220.486 70.1007 223.072 69.3042 226.347 68.2232L226.356 68.2204C232.985 66.1003 238.194 65.131 241.905 65.4231C243.771 65.5414 245.396 66.0065 246.73 66.8694C248.075 67.739 249.067 68.9756 249.713 70.5349C250.791 73.1388 251.116 75.9925 250.717 79.0702C250.346 82.1759 249.415 85.2173 247.931 88.1911C246.469 91.229 244.542 93.9263 242.151 96.2785C239.833 98.6771 237.188 100.497 234.221 101.725C228.349 104.158 223.263 105.18 219.013 104.666C214.798 104.181 211.83 102.208 210.368 98.6779C209.607 96.8426 209.171 95.1869 209.113 93.7318L209.113 93.7229L209.112 93.714C209.079 92.203 209.692 90.5522 210.774 88.8024C211.55 87.5179 212.295 86.246 213.011 84.9866C213.172 84.7049 213.328 84.433 213.48 84.1709C213.015 84.1289 212.57 84.0673 212.146 83.9858C208.542 83.2926 205.998 81.3568 204.68 78.1737C204.386 77.4631 204.301 76.6955 204.393 75.8967L204.394 75.8801L204.397 75.8637C204.537 74.9248 205.012 73.8993 205.716 72.8131C206.363 71.7197 206.962 70.7455 207.512 69.8916C207.816 69.3639 208.085 68.8766 208.321 68.4292C206.26 67.9399 204.303 67.137 202.455 66.0213L202.448 66.0168L202.44 66.0122C199.736 64.3153 197.76 61.97 196.53 59.0009C195.229 55.8597 194.944 52.6723 195.694 49.468L195.696 49.4598L195.698 49.4517C196.5 46.2668 198.067 43.4268 200.381 40.9412C202.719 38.3825 205.497 36.4359 208.705 35.1069C210.606 34.3195 212.487 33.7917 214.346 33.5312C216.136 33.2646 218.054 32.8792 220.101 32.3734L220.128 32.3665L220.156 32.3613C221.345 32.1386 222.508 31.8587 223.647 31.5214C224.78 31.186 226.013 30.7434 227.347 30.1908C228.204 29.8361 229.048 29.4531 229.881 29.0419C230.728 28.5522 231.475 28.1692 232.115 27.9042C232.824 27.6104 233.592 27.597 234.286 28.0221C234.918 28.4091 235.344 29.0739 235.649 29.8088C236.209 31.1605 236.262 32.6117 235.861 34.1192L235.854 34.1462L235.845 34.1727C235.602 34.9174 235.144 35.5683 234.381 35.8843L231.987 36.8762C231.259 37.1775 230.714 37.4696 230.327 37.7442C229.966 38.0008 229.791 38.2085 229.712 38.3484C229.709 38.364 229.706 38.3898 229.709 38.4305L229.714 38.5014L229.712 38.524C229.716 38.5511 229.724 38.5951 229.738 38.6595C229.767 38.7929 229.814 38.9777 229.883 39.2197L231.001 41.9173C232.344 45.1612 232.745 48.5167 232.197 51.9634C231.653 55.3817 230.362 58.4977 228.33 61.2992L228.325 61.3059L228.32 61.3126C226.243 64.0761 223.548 66.1414 220.255 67.5053C218.277 68.3245 216.182 68.7947 213.975 68.9218C213.941 68.9868 213.91 69.0519 213.879 69.1172ZM221.715 82.4014C221.598 82.4269 221.482 82.4519 221.367 82.4762C221.172 82.5173 220.98 82.5566 220.79 82.5943C220.607 82.6305 220.427 82.6652 220.248 82.6984C220.162 82.8179 220.079 82.9371 219.998 83.0561C219.816 83.321 219.644 83.5843 219.481 83.8461C218.752 85.0177 218.205 86.1587 217.842 87.2689C217.352 88.927 217.449 90.5838 218.135 92.2394C219.139 94.6636 220.977 96.2577 223.649 97.0214C226.379 97.7607 229.282 97.4935 232.357 96.2199C236.437 94.53 239.003 92.5317 240.057 90.2249C240.68 88.7198 241.035 87.1525 241.122 85.5232C241.234 83.9529 241.008 82.4878 240.445 81.1279C240.053 80.1818 239.409 79.5479 238.514 79.226C237.619 78.9041 236.228 78.8914 234.342 79.1877C232.515 79.4596 230.032 80.0722 226.894 81.0257C225.038 81.5935 223.311 82.0521 221.715 82.4014ZM239.14 89.8255C239.715 88.4304 240.043 86.98 240.124 85.4698L240.124 85.461L240.125 85.4523C240.226 84.0259 240.021 82.7172 239.521 81.5106C239.228 80.8025 238.784 80.3857 238.176 80.167C237.531 79.935 236.353 79.884 234.497 80.1756L234.489 80.1769C232.734 80.4379 230.307 81.034 227.187 81.982M239.14 89.8255C238.241 91.7771 235.968 93.6415 231.974 95.296C229.069 96.4995 226.396 96.7275 223.916 96.0579C221.522 95.3716 219.938 93.9785 219.059 91.8567C218.459 90.409 218.379 88.9917 218.797 87.5663C219.208 86.3143 219.881 84.9939 220.834 83.605M221.384 57.2515L221.384 57.2409C221.606 54.8631 221.071 52.0203 219.688 48.6813C218.815 46.5734 217.793 44.9132 216.64 43.6694L216.626 43.6534L216.611 43.6367C215.467 42.2886 214.334 41.4483 213.224 41.0301L213.209 41.0244L213.194 41.0182C212.093 40.5623 211.049 40.5611 210.001 40.9952C209.169 41.34 208.5 42.0158 208.026 43.1589C207.541 44.3302 207.31 45.766 207.375 47.4966C207.473 49.1148 207.919 50.9145 208.743 52.9033C209.615 55.0083 210.678 56.7706 211.923 58.2058C213.174 59.6492 214.444 60.6327 215.721 61.2078C216.944 61.7118 217.963 61.718 218.849 61.351C220.309 60.7462 221.199 59.4912 221.384 57.2515ZM206.376 47.5451C206.306 45.7038 206.548 44.1141 207.102 42.7762C207.656 41.4383 208.495 40.5366 209.619 40.0713C210.92 39.5325 212.239 39.5402 213.577 40.0944C214.89 40.5894 216.156 41.5545 217.374 42.9897C218.626 44.3412 219.706 46.1109 220.612 48.2986C222.033 51.7281 222.622 54.7398 222.38 57.3337C222.173 59.8441 221.123 61.4911 219.231 62.2748C218.049 62.7647 216.747 62.7152 215.325 62.1264C213.879 61.4784 212.493 60.39 211.167 58.861C209.841 57.3321 208.725 55.4738 207.819 53.286C206.962 51.2165 206.481 49.3029 206.376 47.5451Z" fill="white"/>
</svg>
